<svg width="172" height="172" viewBox="0 0 172 172" fill="none" xmlns="http://www.w3.org/2000/svg">
<path d="M85.4531 134.358V106.643C85.4509 106.226 85.3387 105.816 85.1278 105.456C84.9169 105.096 84.6148 104.798 84.252 104.592L59.6426 90.6761C59.2952 90.4756 58.9011 90.37 58.5 90.37C58.0989 90.37 57.7048 90.4756 57.3574 90.6761L32.748 104.592C32.3852 104.798 32.0831 105.096 31.8722 105.456C31.6613 105.816 31.5491 106.226 31.5469 106.643V134.358C31.5491 134.775 31.6613 135.184 31.8722 135.544C32.0831 135.904 32.3852 136.203 32.748 136.409L57.3574 150.325C57.7048 150.525 58.0989 150.631 58.5 150.631C58.9011 150.631 59.2952 150.525 59.6426 150.325L84.252 136.409C84.6148 136.203 84.9169 135.904 85.1278 135.544C85.3387 135.184 85.4509 134.775 85.4531 134.358V134.358Z" stroke="#85A8BE" stroke-width="2.5" stroke-linecap="round" stroke-linejoin="round"/>
<path d="M58 108.625V111.25" stroke="#85A8BE" stroke-width="2" stroke-linecap="round" stroke-linejoin="round"/>
<path d="M58 128.75V131.375" stroke="#85A8BE" stroke-width="2" stroke-linecap="round" stroke-linejoin="round"/>
<path d="M64.125 115.625C64.125 115.05 64.0118 114.482 63.792 113.951C63.5721 113.42 63.2498 112.938 62.8436 112.531C62.4373 112.125 61.955 111.803 61.4242 111.583C60.8934 111.363 60.3245 111.25 59.75 111.25H55.8125C54.6522 111.25 53.5394 111.711 52.7189 112.531C51.8984 113.352 51.4375 114.465 51.4375 115.625C51.4375 116.785 51.8984 117.898 52.7189 118.719C53.5394 119.539 54.6522 120 55.8125 120H60.625C61.7853 120 62.8981 120.461 63.7186 121.281C64.5391 122.102 65 123.215 65 124.375C65 125.535 64.5391 126.648 63.7186 127.469C62.8981 128.289 61.7853 128.75 60.625 128.75H55.375C54.2147 128.75 53.1019 128.289 52.2814 127.469C51.4609 126.648 51 125.535 51 124.375" stroke="#85A8BE" stroke-width="2" stroke-linecap="round" stroke-linejoin="round"/>
<path d="M90.5 42L104.25 53L90.5 64" stroke="#85A8BE" stroke-width="2.5" stroke-linecap="round" stroke-linejoin="round"/>
<path d="M109.75 64H123.5" stroke="#85A8BE" stroke-width="2.5" stroke-linecap="round" stroke-linejoin="round"/>
<path d="M137.078 25.5H76.9219C75.3082 25.5 74 26.8082 74 28.4219V77.5781C74 79.1918 75.3082 80.5 76.9219 80.5H137.078C138.692 80.5 140 79.1918 140 77.5781V28.4219C140 26.8082 138.692 25.5 137.078 25.5Z" stroke="#85A8BE" stroke-width="2.5" stroke-linecap="round" stroke-linejoin="round"/>
</svg>
