<svg width="172" height="172" viewBox="0 0 172 172" fill="none" xmlns="http://www.w3.org/2000/svg">
<g clip-path="url(#clip0_429_297)">
<path d="M86 114.125C98.4264 114.125 108.5 104.051 108.5 91.625C108.5 79.1986 98.4264 69.125 86 69.125C73.5736 69.125 63.5 79.1986 63.5 91.625C63.5 104.051 73.5736 114.125 86 114.125Z" stroke="#060A0F" stroke-width="2.5" stroke-linecap="round" stroke-linejoin="round"/>
<path d="M52.25 131C56.1796 125.76 61.2752 121.508 67.1332 118.579C72.9911 115.65 79.4506 114.125 86 114.125C92.5494 114.125 99.0089 115.65 104.867 118.579C110.725 121.508 115.82 125.76 119.75 131" stroke="#060A0F" stroke-width="2.5" stroke-linecap="round" stroke-linejoin="round"/>
<path d="M142.25 147.875V24.125C142.25 21.0184 139.732 18.5 136.625 18.5L35.375 18.5C32.2684 18.5 29.75 21.0184 29.75 24.125L29.75 147.875C29.75 150.982 32.2684 153.5 35.375 153.5H136.625C139.732 153.5 142.25 150.982 142.25 147.875Z" stroke="#060A0F" stroke-width="2.5" stroke-linecap="round" stroke-linejoin="round"/>
<path d="M103.387 55.6133C102.309 54.5352 103.023 52.2734 102.473 50.9492C101.922 49.625 99.8125 48.4648 99.8125 47C99.8125 45.5352 101.898 44.4219 102.473 43.0508C103.047 41.6797 102.309 39.4648 103.387 38.3867C104.465 37.3086 106.727 38.0234 108.051 37.4727C109.375 36.9219 110.535 34.8125 112 34.8125C113.465 34.8125 114.578 36.8984 115.949 37.4727C117.32 38.0469 119.535 37.3086 120.613 38.3867C121.691 39.4648 120.977 41.7266 121.527 43.0508C122.078 44.375 124.188 45.5352 124.188 47C124.188 48.4648 122.102 49.5781 121.527 50.9492C120.953 52.3203 121.691 54.5352 120.613 55.6133C119.535 56.6914 117.273 55.9766 115.949 56.5273C114.625 57.0781 113.465 59.1875 112 59.1875C110.535 59.1875 109.422 57.1016 108.051 56.5273C106.68 55.9531 104.465 56.6914 103.387 55.6133Z" stroke="#060A0F" stroke-width="2" stroke-linecap="round" stroke-linejoin="round"/>
<path d="M117.156 44.1875L110.277 50.75L106.844 47.4688" stroke="#060A0F" stroke-width="2" stroke-linecap="round" stroke-linejoin="round"/>
</g>
<defs>
<clipPath id="clip0_429_297">
<rect width="172" height="172" fill="white"/>
</clipPath>
</defs>
</svg>
