<svg width="172" height="172" viewBox="0 0 172 172" fill="none" xmlns="http://www.w3.org/2000/svg">
<path d="M31.638 156.625V144.025H33.654V156.625H31.638ZM36.7666 156.625V144.025H38.6926L45.0556 153.178V144.025H47.0176V156.625H45.0916L38.7376 147.364V156.625H36.7666ZM53.4247 156.625L48.5827 144.025H50.8507L54.5317 153.934L58.0687 144.025H60.2917L55.5757 156.625H53.4247ZM67.4285 156.895C66.4805 156.895 65.6015 156.73 64.7915 156.4C63.9875 156.064 63.2855 155.599 62.6855 155.005C62.0915 154.411 61.6265 153.715 61.2905 152.917C60.9605 152.119 60.7955 151.255 60.7955 150.325C60.7955 149.389 60.9605 148.522 61.2905 147.724C61.6265 146.926 62.0915 146.23 62.6855 145.636C63.2855 145.042 63.9875 144.58 64.7915 144.25C65.6015 143.92 66.4805 143.755 67.4285 143.755C68.3705 143.755 69.2435 143.923 70.0475 144.259C70.8515 144.595 71.5535 145.063 72.1535 145.663C72.7535 146.263 73.2185 146.962 73.5485 147.76C73.8845 148.552 74.0525 149.407 74.0525 150.325C74.0525 151.255 73.8845 152.119 73.5485 152.917C73.2185 153.715 72.7535 154.411 72.1535 155.005C71.5535 155.599 70.8515 156.064 70.0475 156.4C69.2435 156.73 68.3705 156.895 67.4285 156.895ZM67.4285 154.987C68.0645 154.987 68.6555 154.879 69.2015 154.663C69.7535 154.441 70.2335 154.126 70.6415 153.718C71.0495 153.304 71.3675 152.812 71.5955 152.242C71.8295 151.666 71.9465 151.027 71.9465 150.325C71.9465 149.383 71.7455 148.564 71.3435 147.868C70.9475 147.166 70.4075 146.623 69.7235 146.239C69.0395 145.855 68.2745 145.663 67.4285 145.663C66.7925 145.663 66.1985 145.774 65.6465 145.996C65.1005 146.212 64.6205 146.524 64.2065 146.932C63.7985 147.34 63.4775 147.832 63.2435 148.408C63.0155 148.978 62.9015 149.617 62.9015 150.325C62.9015 151.267 63.1025 152.089 63.5045 152.791C63.9065 153.487 64.4465 154.027 65.1245 154.411C65.8085 154.795 66.5765 154.987 67.4285 154.987ZM76.3575 156.625V144.025H78.3735V156.625H76.3575ZM87.228 156.895C85.92 156.895 84.777 156.625 83.799 156.085C82.821 155.545 82.059 154.783 81.513 153.799C80.973 152.809 80.703 151.654 80.703 150.334C80.703 149.374 80.862 148.495 81.18 147.697C81.504 146.893 81.957 146.197 82.539 145.609C83.127 145.021 83.82 144.565 84.618 144.241C85.416 143.917 86.292 143.755 87.246 143.755C88.206 143.755 89.034 143.875 89.73 144.115C90.432 144.355 91.044 144.697 91.566 145.141L90.522 146.788C90.126 146.422 89.664 146.149 89.136 145.969C88.608 145.789 88.026 145.699 87.39 145.699C86.688 145.699 86.055 145.807 85.491 146.023C84.927 146.239 84.444 146.548 84.042 146.95C83.646 147.346 83.34 147.829 83.124 148.399C82.914 148.963 82.809 149.602 82.809 150.316C82.809 151.288 82.998 152.119 83.376 152.809C83.76 153.499 84.3 154.027 84.996 154.393C85.698 154.753 86.526 154.933 87.48 154.933C88.116 154.933 88.728 154.84 89.316 154.654C89.91 154.462 90.465 154.153 90.981 153.727L91.917 155.428C91.311 155.902 90.618 156.265 89.838 156.517C89.064 156.769 88.194 156.895 87.228 156.895ZM93.8568 156.625V144.025H102.002V145.807H95.8728V149.209H101.165V150.892H95.8728V154.825H102.056V156.625H93.8568Z" fill="#060A0F"/>
<path d="M125.656 152.25H136.844C138.327 152.25 139.75 151.661 140.799 150.612C141.848 149.563 142.438 148.14 142.438 146.656V57.1562M142.438 57.1562L103.281 18M142.438 57.1562H103.281V18M103.281 18H36.1562C34.6727 18 33.2499 18.5893 32.2009 19.6384C31.1518 20.6874 30.5625 22.1102 30.5625 23.5938V85.125" stroke="#060A0F" stroke-width="2.5" stroke-linecap="round" stroke-linejoin="round"/>
</svg>
