<svg width="172" height="172" viewBox="0 0 172 172" fill="none" xmlns="http://www.w3.org/2000/svg">
<path d="M85.5 123.125C99.4452 123.125 110.75 111.82 110.75 97.875C110.75 83.9298 99.4452 72.625 85.5 72.625C71.5548 72.625 60.25 83.9298 60.25 97.875C60.25 111.82 71.5548 123.125 85.5 123.125Z" stroke="#060A0F" stroke-width="2.5" stroke-miterlimit="10"/>
<path d="M47.2305 145.219C51.1085 138.5 56.6867 132.921 63.4045 129.042C70.1223 125.164 77.7428 123.121 85.5 123.121C93.2572 123.121 100.878 125.164 107.596 129.042C114.313 132.921 119.892 138.5 123.77 145.219" stroke="#060A0F" stroke-width="2.5" stroke-linecap="round" stroke-linejoin="round"/>
<path d="M25.8438 48.8438V58.5293C25.8438 65.5078 31.4336 71.291 38.4121 71.3438C40.0815 71.3553 41.7368 71.0365 43.2824 70.4057C44.8281 69.7748 46.2337 68.8444 47.4183 67.668C48.6029 66.4916 49.543 65.0925 50.1845 63.5512C50.826 62.0099 51.1563 60.357 51.1562 58.6875V48.8438C51.1562 48.4708 51.0081 48.1131 50.7444 47.8494C50.4806 47.5857 50.123 47.4375 49.75 47.4375H27.25C26.877 47.4375 26.5194 47.5857 26.2556 47.8494C25.9919 48.1131 25.8438 48.4708 25.8438 48.8438Z" stroke="#060A0F" stroke-width="2" stroke-linecap="round" stroke-linejoin="round"/>
<path d="M32.875 78.375H44.125" stroke="#060A0F" stroke-width="2" stroke-linecap="round" stroke-linejoin="round"/>
<path d="M38.5 71.3438V78.375" stroke="#060A0F" stroke-width="2" stroke-linecap="round" stroke-linejoin="round"/>
<path d="M50.8392 61.5H52.5619C54.0537 61.5 55.4844 60.9074 56.5393 59.8525C57.5942 58.7976 58.1869 57.3668 58.1869 55.875V53.0625C58.1869 52.6895 58.0387 52.3319 57.775 52.0681C57.5113 51.8044 57.1536 51.6562 56.7806 51.6562H51.1556" stroke="#060A0F" stroke-width="2" stroke-linecap="round" stroke-linejoin="round"/>
<path d="M26.1956 61.5H24.4202C22.9284 61.5 21.4976 60.9074 20.4428 59.8525C19.3879 58.7976 18.7952 57.3668 18.7952 55.875V53.0625C18.7952 52.6895 18.9434 52.3319 19.2071 52.0681C19.4708 51.8044 19.8285 51.6562 20.2015 51.6562H25.8265" stroke="#060A0F" stroke-width="2" stroke-linecap="round" stroke-linejoin="round"/>
<path d="M104.375 40.3309V26.3438C104.375 25.8382 104.573 25.3533 104.924 24.9958C105.276 24.6383 105.753 24.4375 106.25 24.4375H143.75C144.247 24.4375 144.724 24.6383 145.076 24.9958C145.427 25.3533 145.625 25.8382 145.625 26.3438V40.3309C145.625 60.3465 128.914 66.9707 125.586 68.0906C125.208 68.2329 124.792 68.2329 124.414 68.0906C121.086 66.9707 104.375 60.3465 104.375 40.3309Z" stroke="#060A0F" stroke-width="2.5" stroke-linecap="round" stroke-linejoin="round"/>
<path d="M141.5 97.3438V99.6875" stroke="#060A0F" stroke-width="2" stroke-linecap="round" stroke-linejoin="round"/>
<path d="M141.5 115.312V117.656" stroke="#060A0F" stroke-width="2" stroke-linecap="round" stroke-linejoin="round"/>
<path d="M146.969 103.594C146.969 103.081 146.868 102.573 146.671 102.099C146.475 101.625 146.187 101.194 145.825 100.832C145.462 100.469 145.031 100.181 144.557 99.9848C144.083 99.7885 143.575 99.6875 143.062 99.6875H139.547C138.511 99.6875 137.517 100.099 136.785 100.832C136.052 101.564 135.641 102.558 135.641 103.594C135.641 104.63 136.052 105.623 136.785 106.356C137.517 107.088 138.511 107.5 139.547 107.5H143.844C144.88 107.5 145.873 107.912 146.606 108.644C147.338 109.377 147.75 110.37 147.75 111.406C147.75 112.442 147.338 113.436 146.606 114.168C145.873 114.901 144.88 115.312 143.844 115.312H139.156C138.12 115.312 137.127 114.901 136.394 114.168C135.662 113.436 135.25 112.442 135.25 111.406" stroke="#060A0F" stroke-width="2" stroke-linecap="round" stroke-linejoin="round"/>
</svg>
