<svg width="172" height="172" viewBox="0 0 172 172" fill="none" xmlns="http://www.w3.org/2000/svg">
<path d="M125.681 120.345L117.094 124.621L105.969 103.345L114.66 98.9991C115.306 98.6698 116.056 98.6093 116.746 98.8308C117.437 99.0522 118.011 99.5376 118.345 100.181L126.898 116.556C127.071 116.883 127.177 117.243 127.21 117.612C127.242 117.981 127.201 118.354 127.087 118.707C126.974 119.06 126.791 119.387 126.55 119.668C126.308 119.949 126.013 120.18 125.681 120.345V120.345Z" stroke="#060A0F" stroke-width="2" stroke-linecap="round" stroke-linejoin="round"/>
<path d="M55.9057 124.273L47.3185 119.962C46.9879 119.8 46.6932 119.573 46.452 119.295C46.2108 119.016 46.0281 118.692 45.9145 118.342C45.801 117.992 45.7591 117.622 45.7913 117.256C45.8234 116.889 45.929 116.532 46.1018 116.207L54.6541 99.8324C54.9887 99.1893 55.561 98.7023 56.2494 98.475C56.9377 98.2478 57.6876 98.2982 58.3393 98.6156L67.0307 102.961L55.9057 124.273Z" stroke="#060A0F" stroke-width="2" stroke-linecap="round" stroke-linejoin="round"/>
<path d="M117.094 124.62L111.531 131.156L98.7375 143.95C98.3888 144.276 97.9663 144.513 97.5062 144.64C97.046 144.767 96.5619 144.781 96.0953 144.68L75.9312 139.639C75.5629 139.536 75.2197 139.359 74.923 139.117L55.9062 124.272" stroke="#060A0F" stroke-width="2" stroke-linecap="round" stroke-linejoin="round"/>
<path d="M111.532 131.157L96.2355 120.032L91.7855 123.37C89.8575 124.809 87.5162 125.586 85.1105 125.586C82.7047 125.586 80.3634 124.809 78.4355 123.37L76.5581 121.944C76.2407 121.703 75.9781 121.397 75.7878 121.047C75.5974 120.696 75.4837 120.309 75.4542 119.912C75.4246 119.514 75.4798 119.114 75.6162 118.74C75.7525 118.365 75.967 118.023 76.2452 117.738L89.8734 104.144C90.1294 103.89 90.4331 103.688 90.7672 103.551C91.1012 103.413 91.4591 103.344 91.8202 103.345H105.97" stroke="#060A0F" stroke-width="2" stroke-linecap="round" stroke-linejoin="round"/>
<path d="M67.2392 102.962L85.074 97.7472C85.7077 97.5655 86.3854 97.6148 86.9861 97.8863L99.015 103.345" stroke="#060A0F" stroke-width="2" stroke-linecap="round" stroke-linejoin="round"/>
<path d="M80.9375 152.016L70.473 149.374C70.0466 149.278 69.6518 149.074 69.3258 148.783L61.4688 141.969" stroke="#060A0F" stroke-width="2" stroke-linecap="round" stroke-linejoin="round"/>
<path d="M106.843 31.1545C106.843 29.8752 105.81 28.8381 104.536 28.8381H95.3071C94.0329 28.8381 93 29.8752 93 31.1545V77.4818C93 78.7611 94.0329 79.7981 95.3071 79.7981H104.536C105.81 79.7981 106.843 78.7611 106.843 77.4818M106.843 31.1545V77.4818M106.843 31.1545C106.843 29.8752 107.876 28.8381 109.15 28.8381H118.378C119.652 28.8381 120.685 29.8752 120.685 31.1545V77.4818C120.685 78.7611 119.652 79.7981 118.378 79.7981H109.15C107.876 79.7981 106.843 78.7611 106.843 77.4818M93 40.42H106.843M106.843 68.2163H120.685M130.835 69.1431L144.217 65.5238M123.685 42.273L137.066 38.6827M123.134 30.4889L132.086 28.0799C133.322 27.7473 134.592 28.4836 134.924 29.7245L146.92 74.662C147.252 75.9029 146.518 77.1785 145.282 77.5111L136.331 79.9201C135.095 80.2527 133.824 79.5164 133.493 78.2755L121.496 33.338C121.165 32.0971 121.898 30.8215 123.134 30.4889Z" stroke="#060A0F" stroke-width="2" stroke-linecap="round" stroke-linejoin="round"/>
<path d="M27.3414 57.375C27.113 57.3745 26.8876 57.3229 26.6816 57.224C26.4757 57.1251 26.2946 56.9813 26.1514 56.8033C26.0083 56.6253 25.9068 56.4175 25.8543 56.1952C25.8019 55.9728 25.7999 55.7416 25.8484 55.5184C27.0734 49.623 34.0598 45.125 42.5008 45.125C50.9418 45.125 57.9281 49.623 59.1531 55.5184C59.2017 55.7416 59.1997 55.9728 59.1472 56.1952C59.0948 56.4175 58.9933 56.6253 58.8502 56.8033C58.707 56.9813 58.5258 57.1251 58.3199 57.224C58.114 57.3229 57.8886 57.3745 57.6602 57.375H27.3414Z" stroke="#060A0F" stroke-width="2" stroke-linecap="round" stroke-linejoin="round"/>
<path d="M57.8125 71.1562V74.2188C57.8125 75.8432 57.1672 77.4011 56.0185 78.5498C54.8699 79.6984 53.312 80.3438 51.6875 80.3438H33.3125C31.688 80.3438 30.1301 79.6984 28.9815 78.5498C27.8328 77.4011 27.1875 75.8432 27.1875 74.2188V71.1562" stroke="#060A0F" stroke-width="2" stroke-linecap="round" stroke-linejoin="round"/>
<path d="M23.3594 72.6875L31.0156 69.625L38.6719 72.6875L46.3281 69.625L53.9844 72.6875L61.6406 69.625" stroke="#060A0F" stroke-width="2" stroke-linecap="round" stroke-linejoin="round"/>
<path d="M22.5938 63.5H62.4062" stroke="#060A0F" stroke-width="2" stroke-linecap="round" stroke-linejoin="round"/>
</svg>
