<svg width="172" height="172" viewBox="0 0 172 172" fill="none" xmlns="http://www.w3.org/2000/svg">
<path d="M126.681 118.345L118.094 122.621L106.969 101.345L115.66 96.9991C116.306 96.6698 117.056 96.6093 117.746 96.8308C118.437 97.0522 119.011 97.5376 119.345 98.1811L127.898 114.556C128.071 114.883 128.177 115.243 128.21 115.612C128.242 115.981 128.201 116.354 128.087 116.707C127.974 117.06 127.791 117.387 127.55 117.668C127.308 117.949 127.013 118.18 126.681 118.345V118.345Z" stroke="#85A8BE" stroke-width="2" stroke-linecap="round" stroke-linejoin="round"/>
<path d="M56.9057 122.273L48.3185 117.962C47.9879 117.8 47.6932 117.573 47.452 117.295C47.2108 117.016 47.0281 116.692 46.9145 116.342C46.801 115.992 46.7591 115.622 46.7913 115.256C46.8234 114.889 46.929 114.532 47.1018 114.207L55.6541 97.8324C55.9887 97.1893 56.561 96.7023 57.2494 96.475C57.9377 96.2478 58.6876 96.2982 59.3393 96.6156L68.0307 100.961L56.9057 122.273Z" stroke="#85A8BE" stroke-width="2" stroke-linecap="round" stroke-linejoin="round"/>
<path d="M118.094 122.62L112.531 129.156L99.7375 141.95C99.3888 142.276 98.9663 142.513 98.5062 142.64C98.046 142.767 97.5619 142.781 97.0953 142.68L76.9312 137.639C76.5629 137.536 76.2197 137.359 75.923 137.117L56.9062 122.272" stroke="#85A8BE" stroke-width="2" stroke-linecap="round" stroke-linejoin="round"/>
<path d="M112.532 129.157L97.2355 118.032L92.7855 121.37C90.8575 122.809 88.5162 123.586 86.1105 123.586C83.7047 123.586 81.3634 122.809 79.4355 121.37L77.5581 119.944C77.2407 119.703 76.9781 119.397 76.7878 119.047C76.5974 118.696 76.4837 118.309 76.4542 117.912C76.4246 117.514 76.4798 117.114 76.6162 116.74C76.7525 116.365 76.967 116.023 77.2452 115.738L90.8734 102.144C91.1294 101.89 91.4331 101.688 91.7672 101.551C92.1012 101.413 92.4591 101.344 92.8202 101.345H106.97" stroke="#85A8BE" stroke-width="2" stroke-linecap="round" stroke-linejoin="round"/>
<path d="M68.2392 100.962L86.074 95.7472C86.7077 95.5655 87.3854 95.6148 87.9861 95.8863L100.015 101.345" stroke="#85A8BE" stroke-width="2" stroke-linecap="round" stroke-linejoin="round"/>
<path d="M81.9375 150.016L71.473 147.374C71.0466 147.278 70.6518 147.074 70.3258 146.783L62.4688 139.969" stroke="#85A8BE" stroke-width="2" stroke-linecap="round" stroke-linejoin="round"/>
<path d="M105.843 26.1545C105.843 24.8752 104.81 23.8381 103.536 23.8381H94.3071C93.0329 23.8381 92 24.8752 92 26.1545V72.4818C92 73.7611 93.0329 74.7981 94.3071 74.7981H103.536C104.81 74.7981 105.843 73.7611 105.843 72.4818M105.843 26.1545V72.4818M105.843 26.1545C105.843 24.8752 106.876 23.8381 108.15 23.8381H117.378C118.652 23.8381 119.685 24.8752 119.685 26.1545V72.4818C119.685 73.7611 118.652 74.7981 117.378 74.7981H108.15C106.876 74.7981 105.843 73.7611 105.843 72.4818M92 35.42H105.843M105.843 63.2163H119.685M129.835 64.1431L143.217 60.5238M122.685 37.273L136.066 33.6827M122.134 25.4889L131.086 23.0799C132.322 22.7473 133.592 23.4836 133.924 24.7245L145.92 69.662C146.252 70.9029 145.518 72.1785 144.282 72.5111L135.331 74.9201C134.095 75.2527 132.824 74.5164 132.493 73.2755L120.496 28.338C120.165 27.0971 120.898 25.8215 122.134 25.4889Z" stroke="#85A8BE" stroke-width="2" stroke-linecap="round" stroke-linejoin="round"/>
<path d="M30.3414 51.375C30.113 51.3745 29.8876 51.3229 29.6816 51.224C29.4757 51.1251 29.2946 50.9813 29.1514 50.8033C29.0083 50.6253 28.9068 50.4175 28.8543 50.1952C28.8019 49.9728 28.7999 49.7416 28.8484 49.5184C30.0734 43.623 37.0598 39.125 45.5008 39.125C53.9418 39.125 60.9281 43.623 62.1531 49.5184C62.2017 49.7416 62.1997 49.9728 62.1472 50.1952C62.0948 50.4175 61.9933 50.6253 61.8502 50.8033C61.707 50.9813 61.5258 51.1251 61.3199 51.224C61.114 51.3229 60.8886 51.3745 60.6602 51.375H30.3414Z" stroke="#85A8BE" stroke-width="2" stroke-linecap="round" stroke-linejoin="round"/>
<path d="M60.8125 65.1562V68.2188C60.8125 69.8432 60.1672 71.4011 59.0185 72.5498C57.8699 73.6984 56.312 74.3438 54.6875 74.3438H36.3125C34.688 74.3438 33.1301 73.6984 31.9815 72.5498C30.8328 71.4011 30.1875 69.8432 30.1875 68.2188V65.1562" stroke="#85A8BE" stroke-width="2" stroke-linecap="round" stroke-linejoin="round"/>
<path d="M26.3594 66.6875L34.0156 63.625L41.6719 66.6875L49.3281 63.625L56.9844 66.6875L64.6406 63.625" stroke="#85A8BE" stroke-width="2" stroke-linecap="round" stroke-linejoin="round"/>
<path d="M25.5938 57.5H65.4062" stroke="#85A8BE" stroke-width="2" stroke-linecap="round" stroke-linejoin="round"/>
</svg>
