<svg width="172" height="172" viewBox="0 0 172 172" fill="none" xmlns="http://www.w3.org/2000/svg">
<path d="M66.5696 60.9375C66.6295 61.184 66.7383 61.4159 66.8894 61.6197C67.0406 61.8234 67.231 61.9948 67.4495 62.1237C67.668 62.2526 67.9101 62.3364 68.1615 62.3702C68.4129 62.404 68.6686 62.387 68.9133 62.3203C80.0859 59.2267 91.8891 59.2267 103.062 62.3203C103.307 62.387 103.562 62.404 103.814 62.3702C104.065 62.3364 104.307 62.2526 104.526 62.1237C104.744 61.9948 104.934 61.8234 105.086 61.6197C105.237 61.4159 105.346 61.184 105.406 60.9375L111.382 35.5547C111.464 35.2149 111.45 34.859 111.34 34.5271C111.231 34.1951 111.031 33.9004 110.762 33.6762C110.494 33.452 110.169 33.3071 109.823 33.258C109.477 33.209 109.124 33.2576 108.804 33.3984L96.9446 38.6719C96.5149 38.8611 96.0303 38.8843 95.5845 38.7371C95.1386 38.59 94.7631 38.2828 94.5305 37.875L87.6399 25.4531C87.4777 25.16 87.24 24.9158 86.9515 24.7457C86.663 24.5756 86.3342 24.4858 85.9993 24.4858C85.6643 24.4858 85.3355 24.5756 85.047 24.7457C84.7585 24.9158 84.5208 25.16 84.3586 25.4531L77.468 37.875C77.2354 38.2828 76.8599 38.59 76.414 38.7371C75.9682 38.8843 75.4836 38.8611 75.0539 38.6719L63.1946 33.3984C62.8747 33.2576 62.5218 33.209 62.1757 33.258C61.8297 33.3071 61.5042 33.452 61.2361 33.6762C60.968 33.9004 60.7679 34.1951 60.6584 34.5271C60.5489 34.859 60.5344 35.2149 60.6164 35.5547L66.5696 60.9375Z" stroke="#060A0F" stroke-width="2.5" stroke-linecap="round" stroke-linejoin="round"/>
<path d="M85.5 123.125C99.4452 123.125 110.75 111.82 110.75 97.875C110.75 83.9298 99.4452 72.625 85.5 72.625C71.5548 72.625 60.25 83.9298 60.25 97.875C60.25 111.82 71.5548 123.125 85.5 123.125Z" stroke="#060A0F" stroke-width="2.5" stroke-miterlimit="10"/>
<path d="M47.2305 145.219C51.1085 138.5 56.6867 132.921 63.4045 129.042C70.1223 125.164 77.7428 123.121 85.5 123.121C93.2572 123.121 100.878 125.164 107.596 129.042C114.313 132.921 119.892 138.5 123.77 145.219" stroke="#060A0F" stroke-width="2.5" stroke-linecap="round" stroke-linejoin="round"/>
</svg>
