<svg width="172" height="172" viewBox="0 0 172 172" fill="none" xmlns="http://www.w3.org/2000/svg">
<path d="M66.0055 60.4516C66.0655 60.6981 66.1743 60.9301 66.3254 61.1338C66.4765 61.3376 66.667 61.509 66.8855 61.6379C67.1039 61.7668 67.3461 61.8506 67.5975 61.8844C67.8489 61.9181 68.1045 61.9011 68.3493 61.8344C79.5219 58.7409 91.3251 58.7409 102.498 61.8344C102.742 61.9011 102.998 61.9181 103.25 61.8844C103.501 61.8506 103.743 61.7668 103.962 61.6379C104.18 61.509 104.37 61.3376 104.522 61.1338C104.673 60.9301 104.781 60.6981 104.841 60.4516L110.818 35.0688C110.9 34.7291 110.886 34.3732 110.776 34.0412C110.667 33.7093 110.466 33.4146 110.198 33.1904C109.93 32.9661 109.605 32.8213 109.259 32.7722C108.913 32.7231 108.56 32.7717 108.24 32.9126L96.3805 38.186C95.9508 38.3752 95.4663 38.3985 95.0204 38.2513C94.5746 38.1041 94.1991 37.797 93.9665 37.3891L87.0758 24.9673C86.9137 24.6742 86.676 24.4299 86.3875 24.2598C86.099 24.0897 85.7702 24 85.4352 24C85.1003 24 84.7715 24.0897 84.483 24.2598C84.1944 24.4299 83.9567 24.6742 83.7946 24.9673L76.904 37.3891C76.6713 37.797 76.2959 38.1041 75.85 38.2513C75.4042 38.3985 74.9196 38.3752 74.4899 38.186L62.6305 32.9126C62.3106 32.7717 61.9578 32.7231 61.6117 32.7722C61.2656 32.8213 60.9402 32.9661 60.6721 33.1904C60.404 33.4146 60.2039 33.7093 60.0944 34.0412C59.9849 34.3732 59.9703 34.7291 60.0524 35.0688L66.0055 60.4516Z" stroke="#85A8BE" stroke-width="2.5" stroke-linecap="round" stroke-linejoin="round"/>
<path d="M85.5 124.639C99.4452 124.639 110.75 113.334 110.75 99.3892C110.75 85.444 99.4452 74.1392 85.5 74.1392C71.5548 74.1392 60.25 85.444 60.25 99.3892C60.25 113.334 71.5548 124.639 85.5 124.639Z" stroke="#85A8BE" stroke-width="2.5" stroke-miterlimit="10"/>
<path d="M47.2305 146.733C51.1085 140.015 56.6867 134.436 63.4045 130.557C70.1223 126.678 77.7428 124.636 85.5 124.636C93.2572 124.636 100.878 126.678 107.596 130.557C114.313 134.436 119.892 140.015 123.77 146.733" stroke="#85A8BE" stroke-width="2.5" stroke-linecap="round" stroke-linejoin="round"/>
</svg>
