<svg width="460" height="460" viewBox="0 0 460 460" fill="none" xmlns="http://www.w3.org/2000/svg">
<path d="M250.951 424H43.0935L43.0935 309.679H43.6067C48.821 257.16 93.1315 216.143 147.022 216.143C200.913 216.143 245.223 257.16 250.438 309.679H250.951V424Z" fill="#92D1FF"/>
<g opacity="0.2" filter="url(#filter0_biiii_287_653)">
<path d="M431.094 424V36L43.0935 424H431.094Z" fill="url(#paint0_linear_287_653)"/>
</g>
<path opacity="0.75" d="M202.451 327V424H88.1297L88.1297 327H88.1554C88.1383 326.424 88.1296 325.847 88.1296 325.268C88.1296 293.699 113.721 268.107 145.29 268.107C176.859 268.107 202.451 293.699 202.451 325.268C202.451 325.847 202.442 326.424 202.425 327H202.451Z" fill="url(#paint1_linear_287_653)"/>
<path d="M97.5009 273.073V293.28" stroke="#060A0F" stroke-width="2" stroke-miterlimit="10"/>
<path d="M188.506 283.176C207.501 293.267 259.998 313.883 261.861 234.586C261.861 234.586 259.601 213.762 265.492 211.046C271.382 208.329 280.882 199.726 268.648 178.898L276.63 170.933C277.709 169.823 278.302 168.33 278.28 166.783C278.258 165.236 277.622 163.76 276.512 162.682C275.402 161.603 273.909 161.01 272.362 161.032C270.814 161.054 269.339 161.691 268.26 162.8L252.396 179.618C252.396 179.618 250.097 175.306 246.022 177.553C241.947 179.799 227.001 189.334 233.789 209.243L216.134 259.955" stroke="#060A0F" stroke-width="2" stroke-miterlimit="10"/>
<path d="M252.374 179.61C252.374 179.61 256.604 186.048 247.601 192.628" stroke="#060A0F" stroke-width="2" stroke-miterlimit="10"/>
<path d="M271.253 183.901C271.253 183.901 273.888 192.176 263.258 197.514C259.498 199.403 255.371 195.427 257.148 191.611C257.178 191.555 257.204 191.494 257.234 191.434" stroke="#060A0F" stroke-width="2" stroke-miterlimit="10"/>
<path d="M274.47 194.12C274.47 194.12 272.146 202.201 265.785 202.589C260.158 202.93 261.102 197.19 261.102 197.19" stroke="#060A0F" stroke-width="2" stroke-miterlimit="10"/>
<path d="M263.077 202.107C263.077 202.107 261.02 204.659 262.145 207.083C263.271 209.506 266.065 210.071 268.782 209.011" stroke="#060A0F" stroke-width="2" stroke-miterlimit="10"/>
<path d="M268.64 178.898L262.956 184.577" stroke="#060A0F" stroke-width="2" stroke-miterlimit="10"/>
<path d="M117.242 277.523L121.869 237.635C122.057 236.021 122.83 234.532 124.044 233.452C125.257 232.371 126.825 231.774 128.45 231.774H170.942C171.872 231.774 172.792 231.969 173.641 232.348C174.49 232.726 175.25 233.279 175.872 233.97C176.493 234.662 176.962 235.476 177.248 236.361C177.534 237.246 177.631 238.181 177.531 239.105L171.339 296.583C171.164 298.208 170.394 299.711 169.178 300.803C167.961 301.895 166.385 302.499 164.75 302.499H149.545" stroke="#060A0F" stroke-width="2" stroke-miterlimit="10"/>
<path d="M167.467 241.934C168.424 241.934 169.2 241.158 169.2 240.2C169.2 239.243 168.424 238.467 167.467 238.467C166.509 238.467 165.733 239.243 165.733 240.2C165.733 241.158 166.509 241.934 167.467 241.934Z" fill="#060A0F"/>
<path d="M138.851 286.777C143.335 287.786 144.232 287.803 148.583 288.45C151.326 288.86 157.596 289.2 157.708 284.944C157.812 281.206 153.616 279.011 150.653 277.816C147.234 276.516 143.656 275.679 140.015 275.328C138.514 275.156 137.007 275.038 135.492 274.974C124.991 274.543 112.878 277.083 105.647 285.298C88.8937 304.306 66.6168 316.527 66.6168 316.527" stroke="#060A0F" stroke-width="2" stroke-miterlimit="10"/>
<path d="M150.86 288.661C153.017 289.575 156.669 291.524 155.173 295.259C154.491 296.984 153.254 297.596 151.555 297.846C147.885 298.376 143.948 297.596 140.343 296.841C139.01 296.561 136.647 296.048 135.332 295.686" stroke="#060A0F" stroke-width="2" stroke-miterlimit="10"/>
<path d="M147.027 297.932C147.027 297.932 150.946 297.885 150.002 301.529C148.445 307.566 136.35 304.832 130.692 303.564" stroke="#060A0F" stroke-width="2" stroke-miterlimit="10"/>
<path d="M147.268 222.723C165.699 223.529 193.784 228.933 219.252 250.964" stroke="#060A0F" stroke-width="2" stroke-miterlimit="10"/>
<path d="M188.506 274.931C188.506 274.931 192.818 315.065 188.506 354.591" stroke="#060A0F" stroke-width="2" stroke-miterlimit="10"/>
<path d="M378.813 256.6L416.713 159.485C417.183 157.605 417.218 155.644 416.816 153.749C416.415 151.855 415.587 150.076 414.395 148.549C413.203 147.023 411.679 145.787 409.938 144.938C408.198 144.088 406.287 143.646 404.35 143.646H253.789C250.408 143.645 247.126 144.783 244.471 146.876C241.816 148.968 239.942 151.894 239.153 155.181L197.652 252.275C197.202 254.149 197.182 256.1 197.594 257.983C198.007 259.866 198.841 261.63 200.034 263.144C201.227 264.658 202.748 265.882 204.482 266.723C206.216 267.564 208.118 268.001 210.045 268.001H364.207C367.564 268.002 370.825 266.88 373.472 264.814C376.118 262.748 377.998 259.857 378.813 256.6Z" stroke="#060A0F" stroke-width="2" stroke-linecap="square" stroke-linejoin="round"/>
<path d="M267.946 164.935C269.787 162.171 272.801 160.942 274.677 162.188C276.553 163.434 276.579 166.69 274.737 169.454C274.452 169.879 274.129 170.278 273.772 170.644L287.42 199.459C289.576 198.006 291.991 197.648 293.707 198.79C294.815 199.528 295.432 200.783 295.626 202.24L304.949 199.092L313.103 196.367C313.966 196.069 314.876 195.785 315.764 195.504C316.099 194.503 316.564 193.551 317.148 192.671C319.735 188.79 323.966 187.065 326.596 188.79C329.227 190.515 329.261 195.03 326.747 198.89L342.271 220.119C345.656 217.341 349.645 216.483 352.409 218.32C356.169 220.821 356.225 227.35 352.534 232.9C352.388 233.12 352.219 233.301 352.064 233.512L362.413 247.652C362.444 247.695 362.482 247.747 362.508 247.79C362.77 248.185 362.951 248.627 363.042 249.092C363.133 249.557 363.131 250.035 363.037 250.499C362.943 250.963 362.758 251.404 362.494 251.797C362.229 252.189 361.89 252.526 361.495 252.788C361.1 253.05 360.658 253.231 360.193 253.322C359.728 253.412 359.25 253.41 358.786 253.316C358.322 253.222 357.881 253.038 357.488 252.773C357.096 252.509 356.759 252.169 356.497 251.775L347.308 237.911C344.401 239.597 341.314 239.92 339.05 238.411C335.453 236.022 335.281 229.968 338.485 224.612L323.604 202.158C321.409 203.65 318.985 204.03 317.247 202.878C316.277 202.194 315.615 201.154 315.406 199.985C315.035 200.084 314.669 200.192 314.298 200.295L306.005 202.559L295.393 205.418C295.068 206.69 294.532 207.899 293.806 208.993C291.219 212.874 286.993 214.599 284.358 212.852C281.723 211.106 281.684 206.531 284.267 202.645C284.653 202.082 285.086 201.553 285.561 201.063L272.568 171.684C271.003 172.749 269.274 173.025 268.036 172.201C266.135 170.959 266.104 167.704 267.946 164.935Z" fill="#060A0F"/>
<path d="M48.4926 313.008C46.8868 312.375 45.3338 311.615 43.8483 310.735C33.8742 304.763 27.3757 291.369 29.355 279.838C30.3425 274.116 34.0682 270.127 38.8634 267.117C42.214 265.039 45.819 263.34 48.8117 260.774C58.7729 252.266 50.8039 239.032 56.3193 228.864C63.0248 216.531 73.8053 209.299 88.0097 209.769C94.8273 209.993 103.68 211.559 109.247 206.57C112.171 203.982 112.783 199.765 113.892 196.246C115.141 192.278 116.183 188.248 117.014 184.172C117.76 180.308 119.166 176.601 121.171 173.215C123.34 169.541 126.399 166.472 130.067 164.293C136.966 160.312 146.587 159.946 153.521 164.038C154.508 164.625 155.443 165.296 156.315 166.043C162.732 171.546 166.647 177.238 166.5 185.5" stroke="#060A0F" stroke-width="2" stroke-miterlimit="10"/>
<path d="M152.624 178.963C152.982 181.395 154.461 183.637 157.087 184.31C160.054 185.064 161.628 187.954 162.464 190.856C163.653 195.113 163.349 199.65 161.602 203.71C159.98 207.531 157.091 211.904 152.205 212.589C143.266 213.883 138.816 210.097 138.816 210.097" stroke="#060A0F" stroke-width="2" stroke-miterlimit="10"/>
<path d="M141.615 305.276C143.849 306.647 142.046 308.907 140.425 309.67C137.639 310.964 134.038 311.192 131.002 311.555C107.919 314.271 100.213 345.958 85.7242 351.848C71.2351 357.739 32.3519 362.042 51.317 296.16C65.9182 245.457 101.123 231.628 115.841 226.169C117.425 225.586 118.972 224.906 120.472 224.133C128.954 219.726 132.926 215.009 134.172 208.924C134.172 208.924 134.172 208.924 134.172 208.898C135.25 203.676 134.526 198.881 133.469 196.108C132.863 194.643 132.393 193.126 132.063 191.576C131.278 187.165 134.685 187.785 144.25 188.312C148.639 188.57 151.123 186.587 152.193 184.06C152.298 183.841 152.383 183.613 152.447 183.378C152.897 181.948 152.951 180.422 152.602 178.963" stroke="#060A0F" stroke-width="2" stroke-miterlimit="10"/>
<path d="M150.679 203.154C147.587 204.819 144.013 203.771 142.615 200.998" stroke="#060A0F" stroke-width="2" stroke-miterlimit="10"/>
<path d="M147.642 196.693C150.522 193.975 150.706 189.492 148.052 186.681C145.399 183.871 140.913 183.796 138.033 186.515C135.153 189.233 134.97 193.716 137.623 196.527C140.276 199.337 144.762 199.412 147.642 196.693Z" stroke="#060A0F" stroke-width="2" stroke-miterlimit="10"/>
<path d="M165.551 195.058C168.431 192.34 168.615 187.857 165.961 185.046C163.308 182.236 158.822 182.161 155.942 184.88C153.062 187.599 152.878 192.081 155.532 194.892C158.185 197.703 162.671 197.777 165.551 195.058Z" stroke="#060A0F" stroke-width="2" stroke-miterlimit="10"/>
<path d="M149.911 190.964L153.672 190.619" stroke="#060A0F" stroke-width="2" stroke-miterlimit="10"/>
<path d="M127.635 231.826C125.737 229.847 124.09 226.936 123.008 222.723" stroke="#060A0F" stroke-width="2" stroke-miterlimit="10"/>
<path d="M145.177 231.774L147.268 222.723L149.541 212.969" stroke="#060A0F" stroke-width="2" stroke-miterlimit="10"/>
<defs>
<filter id="filter0_biiii_287_653" x="22.0935" y="15" width="430" height="430" filterUnits="userSpaceOnUse" color-interpolation-filters="sRGB">
<feFlood flood-opacity="0" result="BackgroundImageFix"/>
<feGaussianBlur in="BackgroundImageFix" stdDeviation="10.5"/>
<feComposite in2="SourceAlpha" operator="in" result="effect1_backgroundBlur_287_653"/>
<feBlend mode="normal" in="SourceGraphic" in2="effect1_backgroundBlur_287_653" result="shape"/>
<feColorMatrix in="SourceAlpha" type="matrix" values="0 0 0 0 0 0 0 0 0 0 0 0 0 0 0 0 0 0 127 0" result="hardAlpha"/>
<feOffset dx="10" dy="10"/>
<feGaussianBlur stdDeviation="11.5"/>
<feComposite in2="hardAlpha" operator="arithmetic" k2="-1" k3="1"/>
<feColorMatrix type="matrix" values="0 0 0 0 0.470588 0 0 0 0 0.737255 0 0 0 0 0.933333 0 0 0 0.18 0"/>
<feBlend mode="normal" in2="shape" result="effect2_innerShadow_287_653"/>
<feColorMatrix in="SourceAlpha" type="matrix" values="0 0 0 0 0 0 0 0 0 0 0 0 0 0 0 0 0 0 127 0" result="hardAlpha"/>
<feOffset dy="2"/>
<feGaussianBlur stdDeviation="3"/>
<feComposite in2="hardAlpha" operator="arithmetic" k2="-1" k3="1"/>
<feColorMatrix type="matrix" values="0 0 0 0 1 0 0 0 0 1 0 0 0 0 1 0 0 0 0.05 0"/>
<feBlend mode="normal" in2="effect2_innerShadow_287_653" result="effect3_innerShadow_287_653"/>
<feColorMatrix in="SourceAlpha" type="matrix" values="0 0 0 0 0 0 0 0 0 0 0 0 0 0 0 0 0 0 127 0" result="hardAlpha"/>
<feOffset dy="1"/>
<feComposite in2="hardAlpha" operator="arithmetic" k2="-1" k3="1"/>
<feColorMatrix type="matrix" values="0 0 0 0 1 0 0 0 0 1 0 0 0 0 1 0 0 0 0.05 0"/>
<feBlend mode="normal" in2="effect3_innerShadow_287_653" result="effect4_innerShadow_287_653"/>
<feColorMatrix in="SourceAlpha" type="matrix" values="0 0 0 0 0 0 0 0 0 0 0 0 0 0 0 0 0 0 127 0" result="hardAlpha"/>
<feOffset dy="-10"/>
<feGaussianBlur stdDeviation="5"/>
<feComposite in2="hardAlpha" operator="arithmetic" k2="-1" k3="1"/>
<feColorMatrix type="matrix" values="0 0 0 0 0.470588 0 0 0 0 0.737255 0 0 0 0 0.933333 0 0 0 0.4 0"/>
<feBlend mode="overlay" in2="effect4_innerShadow_287_653" result="effect5_innerShadow_287_653"/>
</filter>
<linearGradient id="paint0_linear_287_653" x1="22.9998" y1="785" x2="145.619" y2="-7.38792" gradientUnits="userSpaceOnUse">
<stop stop-color="white" stop-opacity="0.01"/>
<stop offset="1" stop-color="#78BCEE"/>
</linearGradient>
<linearGradient id="paint1_linear_287_653" x1="145.29" y1="268.107" x2="145.29" y2="424" gradientUnits="userSpaceOnUse">
<stop stop-color="white"/>
<stop offset="1" stop-color="white" stop-opacity="0"/>
</linearGradient>
</defs>
</svg>
