<svg width="460" height="460" viewBox="0 0 460 460" fill="none" xmlns="http://www.w3.org/2000/svg">
<path d="M429 230H223L429 24V230Z" fill="#A3C987"/>
<g opacity="0.45" filter="url(#filter0_diii_508_429)">
<path d="M429 230L223 24L17 230L223 436L429 230Z" fill="url(#paint0_linear_508_429)"/>
</g>
<path opacity="0.75" d="M429 230H304.406L429 105.406V230Z" fill="url(#paint1_linear_508_429)"/>
<path d="M346.28 206.096V180.901C346.276 179.17 345.586 177.511 344.362 176.287C343.139 175.063 341.48 174.374 339.749 174.369H256.311C254.58 174.374 252.921 175.063 251.697 176.287C250.473 177.511 249.783 179.17 249.779 180.901V299.37C249.782 301.1 250.472 302.758 251.696 303.98C252.921 305.202 254.581 305.888 256.311 305.887H339.749C340.558 305.893 341.361 305.738 342.111 305.434" stroke="white" stroke-width="2" stroke-linecap="round" stroke-linejoin="round"/>
<mask id="mask0_508_429" style="mask-type:luminance" maskUnits="userSpaceOnUse" x="261" y="206" width="152" height="191">
<path d="M412.117 206.079H261.07V396.086H412.117V206.079Z" fill="white"/>
</mask>
<g mask="url(#mask0_508_429)">
<path d="M371.188 350.529C371.188 350.529 364.977 393.827 389.821 389.028C414.53 384.25 423.882 283.729 352.36 269.272" stroke="white" stroke-width="2" stroke-miterlimit="10"/>
<path d="M313.019 308.845C313.019 308.845 292.974 325.75 303.775 342.657" stroke="white" stroke-width="2" stroke-miterlimit="10"/>
<path d="M371.639 338.502C371.295 338.523 370.804 338.294 370.47 338.202C370.046 338.09 369.626 337.97 369.209 337.842C366.767 337.082 364.469 335.919 362.411 334.4C361.943 334.066 361.111 333.851 360.54 334.07C360.223 334.187 359.942 334.387 359.728 334.649C359.514 334.911 359.375 335.225 359.324 335.56C359.149 336.767 360 337.948 360.929 338.722C362.03 339.643 363.174 340.492 364.509 341.044C365.798 341.561 367.127 341.97 368.484 342.267C369.099 342.409 369.724 342.501 370.334 342.657" stroke="white" stroke-width="2" stroke-miterlimit="10"/>
<path d="M379.333 326.788C379.585 328.121 379.77 329.506 379.644 330.86C379.538 332.005 379.127 333.343 377.852 333.621C377.61 333.685 377.359 333.708 377.109 333.689C372.31 333.406 368.356 331.748 363.84 328.484C359.324 325.219 357.734 332.737 361.859 334.07" stroke="white" stroke-width="2" stroke-miterlimit="10"/>
<path d="M362.033 339.629C361.922 339.538 361.816 339.44 361.717 339.337C359.47 336.987 359.063 341.708 361.422 343.097L361.726 343.277C361.885 343.345 362.056 343.425 362.224 343.511C362.304 343.532 362.393 343.567 362.475 343.591M362.475 343.591C364.607 344.526 366.878 345.125 369.114 345.735C366.901 345.013 364.696 344.302 362.475 343.591ZM362.475 343.591C362.283 343.511 362.1 343.432 361.909 343.34C361.85 343.316 361.789 343.297 361.726 343.284C361.686 343.266 361.643 343.259 361.599 343.263C361.556 343.267 361.514 343.283 361.478 343.308C361.425 343.351 361.386 343.41 361.366 343.476C361.004 344.346 361.298 345.443 361.761 346.222C362.248 347.045 363.083 347.678 363.906 348.13C366.12 349.371 368.695 350.106 371.181 350.545C371.642 350.641 372.114 350.672 372.584 350.637" stroke="white" stroke-width="2" stroke-miterlimit="10"/>
<path d="M392.637 355.994C392.637 355.994 385.015 343.006 384.166 331.713C383.647 324.723 381.594 323.243 380.125 323.143" stroke="white" stroke-width="2" stroke-miterlimit="10"/>
<path d="M377.853 333.619L379.335 326.788L380.126 323.14L385.986 296.093C386.073 295.69 386.068 295.273 385.973 294.872C385.878 294.471 385.694 294.097 385.435 293.776C385.177 293.456 384.849 293.197 384.478 293.019C384.106 292.841 383.699 292.749 383.287 292.749H348.242C347.619 292.748 347.014 292.959 346.526 293.347C346.038 293.735 345.696 294.277 345.555 294.884L338.654 324.476L333.617 346.067L333.149 348.09C333.056 348.495 333.056 348.915 333.147 349.32C333.239 349.726 333.421 350.105 333.679 350.43C333.938 350.755 334.266 351.018 334.64 351.199C335.014 351.38 335.423 351.475 335.839 351.476H371.054" stroke="white" stroke-width="2" stroke-miterlimit="10"/>
<path d="M337.228 324.281L320.94 320.212C320.552 320.116 320.147 320.102 319.753 320.17C319.359 320.239 318.983 320.388 318.65 320.61C318.316 320.831 318.033 321.12 317.817 321.457C317.601 321.794 317.457 322.172 317.395 322.567C317.334 322.963 317.355 323.367 317.457 323.754C317.56 324.14 317.742 324.502 317.992 324.814C318.242 325.127 318.554 325.384 318.908 325.57C319.263 325.756 319.652 325.865 320.051 325.893L327.752 326.4" stroke="white" stroke-width="2" stroke-miterlimit="10"/>
<path d="M376.234 278.842C376.234 278.842 340.658 307.662 309.617 273.241" stroke="white" stroke-width="2" stroke-miterlimit="10"/>
<path d="M308.501 313.519C307.835 306.71 304.46 290.887 287.597 291.329" stroke="white" stroke-width="2" stroke-miterlimit="10"/>
<path d="M390.179 291.325C390.179 291.325 387.001 292.199 385.782 294.337" stroke="white" stroke-width="2" stroke-miterlimit="10"/>
<path d="M340.474 259.02C342.243 259.901 344.18 260.396 346.156 260.472C348.131 260.548 350.1 260.204 351.932 259.462C362.264 255.148 361.869 242.431 360.795 235.518C360.71 234.958 360.588 234.403 360.431 233.858V233.846C359.245 229.894 356.151 226.674 352.075 225.76C344.18 223.975 336.961 228.451 333.966 234.478" stroke="white" stroke-width="2" stroke-miterlimit="10"/>
<path d="M360.529 233.982C360.529 233.982 360.496 233.935 360.428 233.858V233.846C359.727 233.056 355.665 229.284 343.907 231.994C342.557 232.303 341.288 232.892 340.181 233.722C340.155 233.737 340.132 233.756 340.111 233.779" stroke="white" stroke-width="2" stroke-miterlimit="10"/>
<path d="M329.188 253.139H323.372C319.174 253.139 315.847 249.294 314.399 245.686C312.365 240.612 313.667 235.418 315.498 230.486C317.032 226.358 318.983 222.348 321.548 218.758C327.291 210.725 335.963 206.175 345.929 207.016C346.813 207.091 347.693 207.2 348.57 207.344C361.953 209.514 370.977 220.704 370.909 234.255C370.881 237.404 370.472 240.537 369.689 243.586C369.329 245.03 368.562 246.339 367.478 247.359C366.395 248.378 365.041 249.065 363.578 249.337" stroke="white" stroke-width="2" stroke-miterlimit="10"/>
<path d="M333.03 243.119C332.87 242.901 332.693 242.697 332.499 242.508C331.744 241.797 331.112 240.966 330.629 240.048C330.051 238.919 329.656 237.733 329.848 236.388C330.063 234.943 330.909 233.203 332.654 233.531C333.479 233.69 333.919 234.48 334.394 235.09C336.199 237.429 338.685 235.079 340.209 233.666" stroke="white" stroke-width="2" stroke-miterlimit="10"/>
<path d="M361.242 244.201C362.666 245.399 363.581 247.354 363.581 249.566C363.581 253.237 361.029 256.207 357.877 256.207C357.52 256.205 357.165 256.164 356.818 256.083" stroke="white" stroke-width="2" stroke-miterlimit="10"/>
<path d="M349.037 248.707C350.314 249.566 353.399 250.269 352.779 247.725C352.035 244.711 351.035 238.271 357.164 237.779C357.164 237.779 359.862 237.894 361.195 238.811" stroke="white" stroke-width="2" stroke-miterlimit="10"/>
<path d="M351.345 253.747C351.345 253.747 348.258 255.384 346.729 252.122" stroke="white" stroke-width="2" stroke-miterlimit="10"/>
<path d="M345.085 242.183C344.966 243.219 345.37 244.115 345.99 244.187C346.61 244.26 347.208 243.486 347.33 242.443C347.452 241.4 347.042 240.513 346.425 240.441C345.808 240.368 345.204 241.142 345.085 242.183Z" fill="white"/>
<path d="M355.136 242.793C355.017 243.827 355.421 244.725 356.041 244.797C356.661 244.87 357.259 244.096 357.379 243.053C357.498 242.01 357.093 241.121 356.476 241.051C355.859 240.981 355.255 241.753 355.136 242.793Z" fill="white"/>
<path d="M349.037 238.441C349.037 238.441 347.148 235.528 342.866 238.292" stroke="white" stroke-width="2" stroke-miterlimit="10"/>
<path d="M352.358 259.271V275.434" stroke="white" stroke-width="2" stroke-miterlimit="10"/>
<path d="M288.456 355.994C288.456 355.994 295.118 349.68 303.771 342.664C311.303 336.554 320.337 329.892 327.757 326.402C328.706 325.96 329.628 325.565 330.523 325.233C332.66 324.419 334.954 324.099 337.232 324.298C337.709 324.337 338.184 324.401 338.654 324.49" stroke="white" stroke-width="2" stroke-miterlimit="10"/>
<path d="M333.617 346.067C326.3 348.258 321.691 353.431 318.213 360.692C315.9 365.514 313.899 371.059 310.262 375.058C306.729 378.919 302.594 382.307 297.807 384.487C289.122 388.439 278.428 388.135 272.785 379.541C268.969 373.713 267.467 366.473 266.705 359.663C265.396 347.828 269.53 314.467 287.597 291.327C293.402 283.884 300.642 277.504 309.608 273.234C315.9 270.246 323.014 268.291 331.077 267.736L333.336 256.084" stroke="white" stroke-width="2" stroke-miterlimit="10"/>
<path d="M387.361 389.397V395.239" stroke="white" stroke-width="2" stroke-miterlimit="10"/>
<path d="M285.914 387.312V395.239" stroke="white" stroke-width="2" stroke-miterlimit="10"/>
<path d="M334.403 256.207C337.549 256.207 340.099 253.234 340.099 249.566C340.099 245.898 337.549 242.925 334.403 242.925C331.257 242.925 328.706 245.898 328.706 249.566C328.706 253.234 331.257 256.207 334.403 256.207Z" stroke="white" stroke-width="2" stroke-miterlimit="10"/>
</g>
<path d="M385 254.485C385 254.565 385 254.645 385 254.729C385.057 258.089 386.727 261.22 388.704 263.929C390.028 265.741 391.599 267.754 391.227 269.975C391.069 270.954 390.522 271.842 390.386 272.825C390.25 273.807 390.768 275.033 391.75 275.084C392.374 275.116 392.905 274.668 393.399 274.284C396.321 271.996 400.12 271.14 403.814 270.989C407.508 270.839 411.198 271.332 414.893 271.437C420.222 271.597 425.635 270.919 430.557 268.855C434.967 267.008 439.008 263.977 441.661 259.929C444.269 255.954 442.727 250.183 439.946 246.726C437.338 243.483 433.56 241.407 429.686 239.945C419.264 236.015 407.369 236.105 397.091 240.411C394.04 241.691 391.089 243.355 388.802 245.763C386.573 248.109 385.024 251.235 385 254.485Z" stroke="white" stroke-width="2" stroke-miterlimit="10"/>
<path d="M134.451 171.747C132.294 173.887 129.405 174.3 126.567 174.931C120.121 176.366 114.715 174.736 114.431 167.325C114.248 162.557 114.753 157.786 117.639 153.827C121.096 149.084 126.407 145.926 131.697 143.619C131.697 143.619 134.124 156.036 145.181 156.575C156.238 157.115 153.547 171.692 140.591 169.262" stroke="white" stroke-width="2" stroke-miterlimit="10"/>
<path d="M142.763 175.471C143.05 175.471 143.314 175.471 143.58 175.451C143.645 175.446 143.71 175.446 143.775 175.451H143.801L144.309 175.405" stroke="white" stroke-width="2" stroke-miterlimit="10"/>
<path d="M155.014 145.142C153.201 142.987 151.034 141.157 148.607 139.729C148.337 139.551 148.057 139.388 147.769 139.241C147.482 139.077 147.196 138.92 146.909 138.773C146.303 138.461 145.675 138.165 145.032 137.913C141.238 136.324 137.165 135.511 133.051 135.523C110.926 135.523 117.074 154.668 117.074 154.668" stroke="white" stroke-width="2" stroke-miterlimit="10"/>
<path d="M158.686 191.927C157.923 187.859 158.878 181.527 159.937 176.463C160.886 171.953 161.925 168.456 161.925 168.456C163.491 159.252 163.425 154.318 162.7 151.778C161.454 147.294 158.161 150.201 158.161 150.201" stroke="white" stroke-width="2" stroke-miterlimit="10"/>
<path d="M162.699 151.778C161.454 147.294 158.161 150.2 158.161 150.2C157.591 148.904 156.888 147.67 156.063 146.52C155.731 146.057 155.381 145.605 155.013 145.165C155.997 142.552 158.623 140.994 161.325 140.784C168.42 140.239 175.415 144.936 177.552 151.687C179.483 157.789 178.344 164.405 178.094 170.665C177.994 173.379 177.607 177.551 179.678 179.748C179.787 179.86 179.89 179.961 180.008 180.061C181.729 181.544 184.472 181.627 187.723 181.406C188.669 181.34 189.665 181.26 190.695 181.165C193.851 180.879 197.294 180.632 200.619 181.194L200.949 181.249C200.848 186.671 200.516 192.111 200.24 197.533C200.094 200.173 199.953 202.815 199.882 205.457C194.984 203.819 188.692 201.489 183.838 199.843L181.25 198.95C172.956 196.124 166.311 193.895 158.554 192.111C155.561 191.419 152.405 190.802 148.917 190.232L145.207 189.58C144.958 189.537 144.733 189.407 144.571 189.213C144.41 189.019 144.322 188.774 144.323 188.522V175.396C146.801 175.186 149.196 174.405 151.321 173.115C153.446 171.825 155.244 170.06 156.574 167.96C160.163 162.187 160.505 156.28 158.542 151.096C158.472 150.888 158.391 150.685 158.298 150.487C158.277 150.428 158.252 150.369 158.224 150.312C158.224 150.295 158.207 150.266 158.198 150.246" stroke="white" stroke-width="2" stroke-miterlimit="10"/>
<path d="M66.9385 198.95C68.0861 190.056 68.6139 181.011 69.7271 172.065" stroke="white" stroke-width="2" stroke-miterlimit="10"/>
<path d="M70 164C70.3112 161.844 70.6795 159.688 71.1421 157.558C71.1592 157.453 71.1792 157.353 71.2049 157.256C71.4619 155.994 71.7474 154.74 72.0615 153.486C73.0151 149.733 76.3444 146.987 78.7114 143.929L78.857 143.602C83.9636 136.955 86.7907 129.12 86.9916 121.056C87.0487 118.139 86.9202 112.371 83.1827 111.18C81.0841 110.509 78.857 111.822 77.6949 113.321C77.2176 113.94 76.8336 114.613 76.5528 115.321" stroke="white" stroke-width="2" stroke-miterlimit="10"/>
<path d="M104.014 275.289C94.8533 249.278 99.197 220.864 99.197 220.864L85.6869 221.289L50.0482 222.419C47.9551 222.488 45.8715 222.107 43.9383 221.302C42.0051 220.496 40.2673 219.285 38.8424 217.75C37.4175 216.216 36.3387 214.393 35.6788 212.405C35.0189 210.418 34.7935 208.311 35.0176 206.229L45.6042 167.581" stroke="white" stroke-width="2" stroke-miterlimit="10"/>
<path d="M49.0442 155.164L49.661 152.946C50.4781 150.002 50.2759 146.867 49.0872 144.052L47.8622 141.126C47.0617 138.687 46.8121 137.508 47.8163 135.124C48.2914 133.999 48.9583 132.965 49.7873 132.069C52.2058 129.4 55.6113 128.075 59.1201 127.622C62.6289 127.168 66.502 127.521 69.3251 129.796C71.2416 131.34 73.0548 135.015 71.8011 137.416C70.8916 139.164 68.9665 139.671 67.3283 139.046C66.755 138.831 66.2386 138.488 65.8192 138.042C63.8855 136.016 59.7943 135.574 58.3598 137.545" stroke="white" stroke-width="2" stroke-miterlimit="10"/>
<path d="M199.801 208.679C199.801 207.959 199.827 207.245 199.856 206.516V206.459C199.856 206.129 199.873 205.787 199.893 205.457" stroke="white" stroke-width="2" stroke-miterlimit="10"/>
<path d="M196.121 139.766C192.761 141.562 188.635 146.078 195.596 156.693C197.891 160.19 200.315 163.972 200.656 168.289C200.975 172.604 201.076 176.932 200.961 181.257" stroke="white" stroke-width="2" stroke-miterlimit="10"/>
<path d="M163.537 225.54L171.524 226.957L172.098 227.058L175.762 227.712L213.119 234.348C214.968 234.684 216.865 234.659 218.705 234.273C221.899 233.601 224.778 231.881 226.883 229.386C228.989 226.891 230.201 223.764 230.327 220.502L224.807 175.313L223.585 165.667C223.197 162.634 223.848 159.558 225.433 156.943L227.071 154.217C227.071 154.217 229.923 150.057 224.934 149.753C222.245 149.595 219.448 150.327 217.018 151.428C215.629 152.045 213.678 153.15 212.895 154.667C212.577 155.242 212.469 155.91 212.591 156.555C213.165 159.519 216.895 160.77 219.356 159.519" stroke="white" stroke-width="2" stroke-miterlimit="10"/>
<path d="M226.58 149.968C226.58 149.968 229.401 148.29 227.493 144.161C226.816 142.692 224.764 141.674 220.349 141.955C208.586 142.704 203.979 154.799 212.91 154.667" stroke="white" stroke-width="2" stroke-miterlimit="10"/>
<path d="M223.901 141.935C226.512 138.337 221.893 134.894 218.527 135.012C215.354 135.124 212.144 136.297 209.364 137.766C205.496 139.809 200.504 143.765 201.933 148.772C202.355 150.246 205.691 152.068 207.872 151.015" stroke="white" stroke-width="2" stroke-miterlimit="10"/>
<path d="M201.686 146.993C201.686 146.993 201.686 146.993 201.686 147.01C199.864 150.49 191.24 147.01 196.109 139.766C197.246 138.163 198.61 136.734 200.157 135.523C212.298 125.602 215.013 135.689 214.995 135.09" stroke="white" stroke-width="2" stroke-miterlimit="10"/>
<path d="M206.971 151.096C206.971 151.096 211.412 154.251 210.049 159.51" stroke="white" stroke-width="2" stroke-miterlimit="10"/>
<path d="M50.6106 125.851C50.3237 124.721 50.361 123.295 51.0323 121.47C51.9992 118.848 54.8165 117.127 57.5593 115.993C58.5606 115.58 59.5676 115.239 60.4283 114.972C63.4206 114.054 66.7056 113.566 69.8959 113.888C70.9711 113.992 72.0343 114.195 73.0719 114.496C74.2687 114.841 75.4141 115.345 76.4774 115.993C79.0997 117.606 80.8756 120.053 81.9428 123.266C82.8724 126.038 83.231 129.331 80.9301 131.061" stroke="white" stroke-width="2" stroke-miterlimit="10"/>
<path d="M81.1395 167.939L80.2932 172.036C80.2651 172.174 80.2096 172.305 80.1299 172.421C80.0502 172.536 79.948 172.635 79.8294 172.711C79.7108 172.786 79.5782 172.837 79.4395 172.86C79.3008 172.883 79.1589 172.878 79.0222 172.845C75.7659 172.074 72.9113 171.356 69.9103 170.665C68.4213 170.315 66.8835 169.985 65.2539 169.643C58.8847 168.327 52.5242 166.84 46.1206 165.693C43.4438 165.214 40.7642 164.798 38.0673 164.485C36.5582 164.31 35.0291 164.238 33.5114 164.126C33.1796 164.119 32.8582 164.01 32.5904 163.814C31.1559 162.764 32.5904 159.35 32.9031 157.932C32.9031 157.915 32.9031 157.895 32.9031 157.878C33.1241 156.79 39.3727 157.103 48.1088 158.466C51.1557 158.945 54.5038 159.542 58.0126 160.262C62.9444 161.275 67.3913 162.368 71.0263 163.418C71.6518 163.601 72.2514 163.776 72.8223 163.951C72.8223 163.951 72.8223 163.951 72.8395 163.951C73.5654 164.181 74.2482 164.402 74.8909 164.623C78.9505 166.008 81.2887 167.213 81.1395 167.939Z" stroke="white" stroke-width="2" stroke-miterlimit="10"/>
<path d="M72.2058 135.21L73.0206 136.842C74.0449 137.964 75.4621 138.673 77.4044 138.185C81.2145 137.238 81.5903 134.08 80.9276 131.061C80.8137 130.514 80.6661 129.973 80.4857 129.443C79.5935 126.781 78.2135 124.638 76.2798 123.074C74.9058 121.962 73.318 121.144 71.6148 120.67C70.227 120.269 68.7951 120.041 67.3515 119.99C64.515 119.892 61.6826 120.28 58.9769 121.138C56.2714 121.967 52.5704 123.393 50.6023 125.84C50.1615 126.378 49.8125 126.984 49.5695 127.636C48.9641 129.283 48.8608 130.617 49.0731 131.696L49.2768 132.7" stroke="white" stroke-width="2" stroke-miterlimit="10"/>
<path d="M73.2617 114.559L74.2084 110.637L75.3331 106.018C75.4918 105.352 75.5117 104.66 75.3915 103.986C75.2712 103.312 75.0135 102.67 74.6342 102.1C74.255 101.53 73.7624 101.044 73.1871 100.673C72.6119 100.301 71.9663 100.052 71.2907 99.9414C71.0261 99.8976 70.7583 99.8765 70.4902 99.8783C69.3549 99.8755 68.2531 100.262 67.3686 100.974C66.4841 101.686 65.8704 102.679 65.6301 103.789C65.3432 105.126 64.9846 106.752 64.5887 108.586C64.2128 110.324 63.7968 112.229 63.355 114.238" stroke="white" stroke-width="2" stroke-miterlimit="10"/>
<path d="M62.0237 120.405V120.394" stroke="white" stroke-width="2" stroke-miterlimit="10"/>
<path d="M58.3686 137.543C58.0817 138.951 57.9182 139.838 57.9268 139.99C57.9268 139.99 57.9268 139.99 57.9268 140.01C56.6845 148.359 53.0294 152.823 49.053 155.15C46.6208 156.533 43.9045 157.343 41.1116 157.516" stroke="white" stroke-width="2" stroke-miterlimit="10"/>
<path d="M67.3513 139.043C67.3513 139.043 60.6895 156.799 71.1069 163.094C71.6577 163.425 72.2332 163.712 72.8282 163.955C73.5412 164.25 74.2771 164.487 75.0288 164.663" stroke="white" stroke-width="2" stroke-miterlimit="10"/>
<path d="M79.7425 172.762C79.7425 172.762 79.7884 173.583 69.7269 172.065C66.2841 171.549 61.6564 170.757 55.4336 169.56C51.5317 168.814 48.2898 168.152 45.6044 167.581C31.4947 164.563 32.5878 163.817 32.5878 163.817" stroke="white" stroke-width="2" stroke-miterlimit="10"/>
<path d="M108.091 72.9556C105.948 84.3312 98.8785 96.3064 90.3031 103.992C85.7127 108.107 80.1727 110.608 74.208 110.637L75.3327 106.018C75.4914 105.352 75.5113 104.66 75.3911 103.986C75.2708 103.312 75.0131 102.67 74.6338 102.1C74.2546 101.53 73.762 101.044 73.1867 100.673C72.6115 100.301 71.9659 100.052 71.2903 99.9414C71.0257 99.8976 70.7579 99.8765 70.4898 99.8783C69.3545 99.8755 68.2527 100.262 67.3682 100.974C66.4837 101.686 65.87 102.679 65.6297 103.789C65.3428 105.126 64.9842 106.752 64.5883 108.586C51.1327 102.621 45.323 85.2894 45.9054 71.4752C46.0689 67.3152 46.2985 61.8383 48.1231 57.6037C48.7368 56.0938 49.6548 54.7266 50.82 53.5871C60.9791 44.0333 78.4599 44.6932 90.6187 49.8316C100.256 53.9027 110.317 61.1182 108.091 72.9556Z" stroke="white" stroke-width="2" stroke-miterlimit="10"/>
<path d="M108.034 73.3659C110.355 76.143 112.532 80.7966 110.616 87.7108C110.321 88.8017 109.899 89.8541 109.359 90.8466C106.312 96.2977 100.431 97.2531 96.4658 97.1957" stroke="white" stroke-width="2" stroke-miterlimit="10"/>
<path d="M106.266 79.1815C108.275 81.5857 110.131 85.3929 109.356 90.8526C109.233 91.7291 109.052 92.5965 108.814 93.449C105.945 103.754 95.4128 103.247 91.7979 102.745" stroke="white" stroke-width="2" stroke-miterlimit="10"/>
<path d="M50.0196 93.3944C47.7761 93.8563 35.0808 91.2513 34.9258 80.6675C34.8803 79.233 35.1507 77.8059 35.7177 76.4874C37.7059 72.006 42.9504 70.5888 45.9715 70.1269" stroke="white" stroke-width="2" stroke-miterlimit="10"/>
<path d="M47.7362 88.0895C45.441 88.2301 33.2449 83.8778 34.5675 73.3744C34.7252 71.9518 35.1923 70.5809 35.936 69.3579C38.5181 65.1949 43.9233 64.5265 46.9759 64.4806" stroke="white" stroke-width="2" stroke-miterlimit="10"/>
<path d="M99.197 220.867C99.197 220.867 99.458 218.873 100.893 214.368" stroke="white" stroke-width="2" stroke-miterlimit="10"/>
<path d="M146.38 189.773V189.793C146.277 196.652 141.503 198.207 137.581 198.953C127.916 200.801 121.205 193.752 121.501 187.612" stroke="white" stroke-width="2" stroke-miterlimit="10"/>
<path d="M129.187 166.121C123.311 171.113 120.227 166.666 120.227 166.666" stroke="white" stroke-width="2" stroke-miterlimit="10"/>
<path d="M66.9385 194.816C72.0194 193.907 77.1463 193.195 82.1814 192.266C84.6373 191.814 87.0912 191.376 89.5433 190.952C100.468 189.092 111.376 187.646 122.422 187.601C122.955 187.601 123.471 187.408 123.873 187.058C124.275 186.708 124.537 186.224 124.611 185.696L124.815 184.166L126.103 174.633" stroke="white" stroke-width="2" stroke-miterlimit="10"/>
<path d="M144.309 175.398V175.352V175.12" stroke="white" stroke-width="2" stroke-miterlimit="10"/>
<path d="M172.095 227.058C172.095 227.058 173.45 240.525 175.464 253.676C176.789 262.329 178.41 270.842 180.103 275.289" stroke="white" stroke-width="2" stroke-miterlimit="10"/>
<path d="M175.464 253.677L175.73 253.605L176.138 253.493C178.29 252.885 180.461 252.345 182.662 251.892C183.012 251.817 183.362 251.754 183.712 251.688C186.166 251.236 188.653 250.993 191.148 250.962C192.253 250.962 193.312 250.925 194.324 250.871H194.387C198.631 250.63 202.177 249.95 205.14 248.937C209.98 247.29 213.248 244.76 215.411 241.83C215.429 241.813 215.437 241.785 215.457 241.767C217.031 239.584 218.129 237.094 218.679 234.46C218.675 234.448 218.675 234.435 218.679 234.423L218.708 234.285" stroke="white" stroke-width="2" stroke-miterlimit="10"/>
<path d="M121.252 155.456C120.917 156.443 121.122 157.404 121.713 157.606C122.303 157.808 123.052 157.178 123.392 156.185C123.731 155.191 123.519 154.238 122.931 154.037C122.343 153.835 121.589 154.464 121.252 155.456Z" fill="white"/>
<path d="M130.947 158.18C130.611 159.165 130.817 160.128 131.407 160.33C131.997 160.532 132.746 159.902 133.084 158.908C133.421 157.914 133.214 156.96 132.625 156.761C132.037 156.561 131.284 157.188 130.947 158.18Z" fill="white"/>
<defs>
<filter id="filter0_diii_508_429" x="17" y="14" width="422" height="432" filterUnits="userSpaceOnUse" color-interpolation-filters="sRGB">
<feFlood flood-opacity="0" result="BackgroundImageFix"/>
<feColorMatrix in="SourceAlpha" type="matrix" values="0 0 0 0 0 0 0 0 0 0 0 0 0 0 0 0 0 0 127 0" result="hardAlpha"/>
<feOffset dy="1"/>
<feComposite in2="hardAlpha" operator="out"/>
<feColorMatrix type="matrix" values="0 0 0 0 1 0 0 0 0 1 0 0 0 0 1 0 0 0 0.05 0"/>
<feBlend mode="normal" in2="BackgroundImageFix" result="effect1_dropShadow_508_429"/>
<feBlend mode="normal" in="SourceGraphic" in2="effect1_dropShadow_508_429" result="shape"/>
<feColorMatrix in="SourceAlpha" type="matrix" values="0 0 0 0 0 0 0 0 0 0 0 0 0 0 0 0 0 0 127 0" result="hardAlpha"/>
<feOffset dx="10" dy="10"/>
<feGaussianBlur stdDeviation="11.5"/>
<feComposite in2="hardAlpha" operator="arithmetic" k2="-1" k3="1"/>
<feColorMatrix type="matrix" values="0 0 0 0 0.639216 0 0 0 0 0.788235 0 0 0 0 0.529412 0 0 0 0.18 0"/>
<feBlend mode="normal" in2="shape" result="effect2_innerShadow_508_429"/>
<feColorMatrix in="SourceAlpha" type="matrix" values="0 0 0 0 0 0 0 0 0 0 0 0 0 0 0 0 0 0 127 0" result="hardAlpha"/>
<feOffset dy="2"/>
<feGaussianBlur stdDeviation="3"/>
<feComposite in2="hardAlpha" operator="arithmetic" k2="-1" k3="1"/>
<feColorMatrix type="matrix" values="0 0 0 0 1 0 0 0 0 1 0 0 0 0 1 0 0 0 0.05 0"/>
<feBlend mode="normal" in2="effect2_innerShadow_508_429" result="effect3_innerShadow_508_429"/>
<feColorMatrix in="SourceAlpha" type="matrix" values="0 0 0 0 0 0 0 0 0 0 0 0 0 0 0 0 0 0 127 0" result="hardAlpha"/>
<feOffset dy="-10"/>
<feGaussianBlur stdDeviation="5"/>
<feComposite in2="hardAlpha" operator="arithmetic" k2="-1" k3="1"/>
<feColorMatrix type="matrix" values="0 0 0 0 0.639216 0 0 0 0 0.788235 0 0 0 0 0.529412 0 0 0 0.4 0"/>
<feBlend mode="overlay" in2="effect3_innerShadow_508_429" result="effect4_innerShadow_508_429"/>
</filter>
<linearGradient id="paint0_linear_508_429" x1="223" y1="839.534" x2="494.44" y2="120.047" gradientUnits="userSpaceOnUse">
<stop stop-color="#BADAA3" stop-opacity="0.52549"/>
<stop offset="1" stop-color="white" stop-opacity="0.12"/>
</linearGradient>
<linearGradient id="paint1_linear_508_429" x1="395.882" y1="116.663" x2="395.882" y2="230" gradientUnits="userSpaceOnUse">
<stop stop-color="white"/>
<stop offset="1" stop-color="white" stop-opacity="0"/>
</linearGradient>
</defs>
</svg>
