<svg width="28" height="28" viewBox="0 0 28 28" fill="none" xmlns="http://www.w3.org/2000/svg">
<path d="M9.625 25.375H18.375" stroke="#85A8BE" stroke-width="2" stroke-linecap="round" stroke-linejoin="round"/>
<path d="M8.60791 18.2656C7.56621 17.4557 6.72252 16.4192 6.14076 15.2349C5.55899 14.0505 5.25441 12.7492 5.25009 11.4297C5.22822 6.68283 9.04541 2.73439 13.7923 2.62502C15.6294 2.58147 17.4336 3.11743 18.949 4.15689C20.4645 5.19634 21.6141 6.68654 22.2351 8.41611C22.856 10.1457 22.9166 12.0269 22.4083 13.7928C21.9 15.5588 20.8486 17.1199 19.4032 18.2547C19.0839 18.5015 18.8253 18.818 18.6471 19.1801C18.4689 19.5422 18.3759 19.9402 18.3751 20.3438V21C18.3751 21.2321 18.2829 21.4546 18.1188 21.6187C17.9547 21.7828 17.7322 21.875 17.5001 21.875H10.5001C10.268 21.875 10.0455 21.7828 9.88137 21.6187C9.71728 21.4546 9.62509 21.2321 9.62509 21V20.3438C9.62235 19.9432 9.5295 19.5485 9.35342 19.1887C9.17733 18.829 8.92253 18.5135 8.60791 18.2656V18.2656Z" stroke="#85A8BE" stroke-width="2" stroke-linecap="round" stroke-linejoin="round"/>
<path d="M14.8857 6.2124C15.9552 6.39369 16.942 6.90245 17.71 7.66847C18.4779 8.43449 18.9892 9.41999 19.1732 10.489" stroke="#85A8BE" stroke-width="2" stroke-linecap="round" stroke-linejoin="round"/>
</svg>
