<svg width="33" height="33" viewBox="0 0 33 33" fill="none" xmlns="http://www.w3.org/2000/svg">
<path d="M12.375 20.1094C13.2293 20.1094 13.9219 19.4168 13.9219 18.5625C13.9219 17.7082 13.2293 17.0156 12.375 17.0156C11.5207 17.0156 10.8281 17.7082 10.8281 18.5625C10.8281 19.4168 11.5207 20.1094 12.375 20.1094Z" fill="#2B526B"/>
<path d="M20.625 20.1094C21.4793 20.1094 22.1719 19.4168 22.1719 18.5625C22.1719 17.7082 21.4793 17.0156 20.625 17.0156C19.7707 17.0156 19.0781 17.7082 19.0781 18.5625C19.0781 19.4168 19.7707 20.1094 20.625 20.1094Z" fill="#2B526B"/>
<path d="M9.59082 10.3126C11.8264 9.61198 14.1575 9.26406 16.5002 9.28138C18.8429 9.26406 21.174 9.61198 23.4096 10.3126" stroke="#2B526B" stroke-width="1.5" stroke-linecap="round" stroke-linejoin="round"/>
<path d="M23.4096 22.6875C21.174 23.3881 18.8429 23.7361 16.5002 23.7187C14.1575 23.7361 11.8264 23.3881 9.59082 22.6875" stroke="#2B526B" stroke-width="1.5" stroke-linecap="round" stroke-linejoin="round"/>
<path d="M19.9803 23.4734L21.54 26.5671C21.6404 26.7781 21.8111 26.9476 22.0228 27.0464C22.2345 27.1452 22.474 27.1671 22.7002 27.1085C25.8584 26.3351 28.5912 24.9945 30.5764 23.2671C30.726 23.1351 30.8347 22.9629 30.8895 22.771C30.9444 22.5791 30.9431 22.3755 30.8857 22.1843L26.5158 7.59214C26.4733 7.44281 26.3963 7.30554 26.2911 7.19136C26.1859 7.07718 26.0553 6.98928 25.91 6.93472C24.6753 6.42821 23.3985 6.03137 22.0943 5.74879C21.8437 5.6939 21.5816 5.73321 21.3581 5.85922C21.1346 5.98524 20.9654 6.18913 20.8826 6.43199L19.8643 9.51285" stroke="#2B526B" stroke-width="1.5" stroke-linecap="round" stroke-linejoin="round"/>
<path d="M13.0193 23.4734L11.4595 26.5671C11.3591 26.7781 11.1884 26.9476 10.9767 27.0464C10.765 27.1452 10.5255 27.1671 10.2993 27.1085C7.14115 26.3351 4.40833 24.9945 2.42318 23.2671C2.27351 23.1351 2.16483 22.9629 2.11 22.771C2.05517 22.5791 2.05649 22.3755 2.1138 22.1843L6.48372 7.59214C6.52625 7.44281 6.60322 7.30554 6.70845 7.19136C6.81367 7.07718 6.94421 6.98928 7.08958 6.93472C8.3242 6.42821 9.601 6.03137 10.9052 5.74879C11.1558 5.6939 11.4179 5.73321 11.6414 5.85922C11.8649 5.98524 12.0342 6.18913 12.1169 6.43199L13.1353 9.51285" stroke="#2B526B" stroke-width="1.5" stroke-linecap="round" stroke-linejoin="round"/>
<path d="M12.375 20.1094C13.2293 20.1094 13.9219 19.4168 13.9219 18.5625C13.9219 17.7082 13.2293 17.0156 12.375 17.0156C11.5207 17.0156 10.8281 17.7082 10.8281 18.5625C10.8281 19.4168 11.5207 20.1094 12.375 20.1094Z" fill="#2B526B"/>
<path d="M20.625 20.1094C21.4793 20.1094 22.1719 19.4168 22.1719 18.5625C22.1719 17.7082 21.4793 17.0156 20.625 17.0156C19.7707 17.0156 19.0781 17.7082 19.0781 18.5625C19.0781 19.4168 19.7707 20.1094 20.625 20.1094Z" fill="#2B526B"/>
<path d="M9.59082 10.3126C11.8264 9.61198 14.1575 9.26406 16.5002 9.28138C18.8429 9.26406 21.174 9.61198 23.4096 10.3126" stroke="#2B526B" stroke-width="1.5" stroke-linecap="round" stroke-linejoin="round"/>
<path d="M23.4096 22.6875C21.174 23.3881 18.8429 23.7361 16.5002 23.7187C14.1575 23.7361 11.8264 23.3881 9.59082 22.6875" stroke="#2B526B" stroke-width="1.5" stroke-linecap="round" stroke-linejoin="round"/>
<path d="M19.9803 23.4734L21.54 26.5671C21.6404 26.7781 21.8111 26.9476 22.0228 27.0464C22.2345 27.1452 22.474 27.1671 22.7002 27.1085C25.8584 26.3351 28.5912 24.9945 30.5764 23.2671C30.726 23.1351 30.8347 22.9629 30.8895 22.771C30.9444 22.5791 30.9431 22.3755 30.8857 22.1843L26.5158 7.59214C26.4733 7.44281 26.3963 7.30554 26.2911 7.19136C26.1859 7.07718 26.0553 6.98928 25.91 6.93472C24.6753 6.42821 23.3985 6.03137 22.0943 5.74879C21.8437 5.6939 21.5816 5.73321 21.3581 5.85922C21.1346 5.98524 20.9654 6.18913 20.8826 6.43199L19.8643 9.51285" stroke="#2B526B" stroke-width="1.5" stroke-linecap="round" stroke-linejoin="round"/>
<path d="M13.0193 23.4734L11.4595 26.5671C11.3591 26.7781 11.1884 26.9476 10.9767 27.0464C10.765 27.1452 10.5255 27.1671 10.2993 27.1085C7.14115 26.3351 4.40833 24.9945 2.42318 23.2671C2.27351 23.1351 2.16483 22.9629 2.11 22.771C2.05517 22.5791 2.05649 22.3755 2.1138 22.1843L6.48372 7.59214C6.52625 7.44281 6.60322 7.30554 6.70845 7.19136C6.81367 7.07718 6.94421 6.98928 7.08958 6.93472C8.3242 6.42821 9.601 6.03137 10.9052 5.74879C11.1558 5.6939 11.4179 5.73321 11.6414 5.85922C11.8649 5.98524 12.0342 6.18913 12.1169 6.43199L13.1353 9.51285" stroke="#2B526B" stroke-width="1.5" stroke-linecap="round" stroke-linejoin="round"/>
</svg>
