<svg width="34" height="33" viewBox="0 0 34 33" fill="none" xmlns="http://www.w3.org/2000/svg">
<path d="M12.875 20.1094C13.7293 20.1094 14.4219 19.4168 14.4219 18.5625C14.4219 17.7082 13.7293 17.0156 12.875 17.0156C12.0207 17.0156 11.3281 17.7082 11.3281 18.5625C11.3281 19.4168 12.0207 20.1094 12.875 20.1094Z" fill="#85A8BE"/>
<path d="M21.125 20.1094C21.9793 20.1094 22.6719 19.4168 22.6719 18.5625C22.6719 17.7082 21.9793 17.0156 21.125 17.0156C20.2707 17.0156 19.5781 17.7082 19.5781 18.5625C19.5781 19.4168 20.2707 20.1094 21.125 20.1094Z" fill="#85A8BE"/>
<path d="M10.0908 10.3126C12.3264 9.61198 14.6575 9.26406 17.0002 9.28138C19.3429 9.26406 21.674 9.61198 23.9096 10.3126" stroke="#85A8BE" stroke-width="1.5" stroke-linecap="round" stroke-linejoin="round"/>
<path d="M23.9096 22.6875C21.674 23.3881 19.3429 23.7361 17.0002 23.7187C14.6575 23.7361 12.3264 23.3881 10.0908 22.6875" stroke="#85A8BE" stroke-width="1.5" stroke-linecap="round" stroke-linejoin="round"/>
<path d="M20.4803 23.4734L22.04 26.5671C22.1404 26.7781 22.3111 26.9476 22.5228 27.0464C22.7345 27.1452 22.974 27.1671 23.2002 27.1085C26.3584 26.3351 29.0912 24.9945 31.0764 23.2671C31.226 23.1351 31.3347 22.9629 31.3895 22.771C31.4444 22.5791 31.4431 22.3755 31.3857 22.1843L27.0158 7.59214C26.9733 7.44281 26.8963 7.30554 26.7911 7.19136C26.6859 7.07718 26.5553 6.98928 26.41 6.93472C25.1753 6.42821 23.8985 6.03137 22.5943 5.74879C22.3437 5.6939 22.0816 5.73321 21.8581 5.85922C21.6346 5.98524 21.4654 6.18913 21.3826 6.43199L20.3643 9.51285" stroke="#85A8BE" stroke-width="1.5" stroke-linecap="round" stroke-linejoin="round"/>
<path d="M13.5193 23.4734L11.9595 26.5671C11.8591 26.7781 11.6884 26.9476 11.4767 27.0464C11.265 27.1452 11.0255 27.1671 10.7993 27.1085C7.64115 26.3351 4.90833 24.9945 2.92318 23.2671C2.77351 23.1351 2.66483 22.9629 2.61 22.771C2.55517 22.5791 2.55649 22.3755 2.6138 22.1843L6.98372 7.59214C7.02625 7.44281 7.10322 7.30554 7.20845 7.19136C7.31367 7.07718 7.44421 6.98928 7.58958 6.93472C8.8242 6.42821 10.101 6.03137 11.4052 5.74879C11.6558 5.6939 11.9179 5.73321 12.1414 5.85922C12.3649 5.98524 12.5342 6.18913 12.6169 6.43199L13.6353 9.51285" stroke="#85A8BE" stroke-width="1.5" stroke-linecap="round" stroke-linejoin="round"/>
<path d="M12.875 20.1094C13.7293 20.1094 14.4219 19.4168 14.4219 18.5625C14.4219 17.7082 13.7293 17.0156 12.875 17.0156C12.0207 17.0156 11.3281 17.7082 11.3281 18.5625C11.3281 19.4168 12.0207 20.1094 12.875 20.1094Z" fill="#85A8BE"/>
<path d="M21.125 20.1094C21.9793 20.1094 22.6719 19.4168 22.6719 18.5625C22.6719 17.7082 21.9793 17.0156 21.125 17.0156C20.2707 17.0156 19.5781 17.7082 19.5781 18.5625C19.5781 19.4168 20.2707 20.1094 21.125 20.1094Z" fill="#85A8BE"/>
<path d="M10.0908 10.3126C12.3264 9.61198 14.6575 9.26406 17.0002 9.28138C19.3429 9.26406 21.674 9.61198 23.9096 10.3126" stroke="#85A8BE" stroke-width="1.5" stroke-linecap="round" stroke-linejoin="round"/>
<path d="M23.9096 22.6875C21.674 23.3881 19.3429 23.7361 17.0002 23.7187C14.6575 23.7361 12.3264 23.3881 10.0908 22.6875" stroke="#85A8BE" stroke-width="1.5" stroke-linecap="round" stroke-linejoin="round"/>
<path d="M20.4803 23.4734L22.04 26.5671C22.1404 26.7781 22.3111 26.9476 22.5228 27.0464C22.7345 27.1452 22.974 27.1671 23.2002 27.1085C26.3584 26.3351 29.0912 24.9945 31.0764 23.2671C31.226 23.1351 31.3347 22.9629 31.3895 22.771C31.4444 22.5791 31.4431 22.3755 31.3857 22.1843L27.0158 7.59214C26.9733 7.44281 26.8963 7.30554 26.7911 7.19136C26.6859 7.07718 26.5553 6.98928 26.41 6.93472C25.1753 6.42821 23.8985 6.03137 22.5943 5.74879C22.3437 5.6939 22.0816 5.73321 21.8581 5.85922C21.6346 5.98524 21.4654 6.18913 21.3826 6.43199L20.3643 9.51285" stroke="#85A8BE" stroke-width="1.5" stroke-linecap="round" stroke-linejoin="round"/>
<path d="M13.5193 23.4734L11.9595 26.5671C11.8591 26.7781 11.6884 26.9476 11.4767 27.0464C11.265 27.1452 11.0255 27.1671 10.7993 27.1085C7.64115 26.3351 4.90833 24.9945 2.92318 23.2671C2.77351 23.1351 2.66483 22.9629 2.61 22.771C2.55517 22.5791 2.55649 22.3755 2.6138 22.1843L6.98372 7.59214C7.02625 7.44281 7.10322 7.30554 7.20845 7.19136C7.31367 7.07718 7.44421 6.98928 7.58958 6.93472C8.8242 6.42821 10.101 6.03137 11.4052 5.74879C11.6558 5.6939 11.9179 5.73321 12.1414 5.85922C12.3649 5.98524 12.5342 6.18913 12.6169 6.43199L13.6353 9.51285" stroke="#85A8BE" stroke-width="1.5" stroke-linecap="round" stroke-linejoin="round"/>
</svg>
