<svg width="28" height="28" viewBox="0 0 28 28" fill="none" xmlns="http://www.w3.org/2000/svg">
<path d="M5.25002 23.625C5.24858 23.2799 5.31549 22.9379 5.44689 22.6187C5.5783 22.2996 5.7716 22.0097 6.01564 21.7656C6.25968 21.5216 6.54964 21.3283 6.86877 21.1969C7.1879 21.0655 7.5299 20.9985 7.87502 21H22.75V3.49999H7.87502C7.5299 3.49855 7.1879 3.56546 6.86877 3.69686C6.54964 3.82827 6.25968 4.02157 6.01564 4.26561C5.7716 4.50965 5.5783 4.79961 5.44689 5.11874C5.31549 5.43787 5.24858 5.77987 5.25002 6.12499V23.625Z" stroke="#85A8BE" stroke-width="1.5" stroke-linecap="round" stroke-linejoin="round"/>
<path d="M5.25 23.625V24.5H21" stroke="#85A8BE" stroke-width="1.5" stroke-linecap="round" stroke-linejoin="round"/>
</svg>
