<svg width="30" height="29" viewBox="0 0 30 29" fill="none" xmlns="http://www.w3.org/2000/svg">
<path d="M10.0156 27.1875C10.3731 27.189 10.7273 27.1197 11.0578 26.9836C11.3883 26.8475 11.6887 26.6473 11.9414 26.3945C12.1942 26.1418 12.3944 25.8415 12.5305 25.5109C12.6666 25.1804 12.7359 24.8262 12.7344 24.4687V19.0312" stroke="#85A8BE" stroke-width="1.5" stroke-linecap="round" stroke-linejoin="round"/>
<path d="M19.9844 27.1875C19.6269 27.189 19.2727 27.1197 18.9422 26.9836C18.6117 26.8475 18.3114 26.6473 18.0586 26.3945C17.8059 26.1418 17.6056 25.8415 17.4695 25.5109C17.3334 25.1804 17.2642 24.8262 17.2656 24.4687V19.0312" stroke="#85A8BE" stroke-width="1.5" stroke-linecap="round" stroke-linejoin="round"/>
<path d="M17.7188 19.0313H19.5312C19.8887 19.0298 20.2429 19.0991 20.5734 19.2352C20.904 19.3713 21.2043 19.5715 21.457 19.8242C21.7098 20.077 21.91 20.3773 22.0461 20.7078C22.1822 21.0384 22.2515 21.3926 22.25 21.75V22.6563C22.2485 23.0137 22.3178 23.3679 22.4539 23.6985C22.59 24.029 22.7902 24.3293 23.043 24.5821C23.2957 24.8348 23.596 25.035 23.9266 25.1711C24.2571 25.3072 24.6113 25.3765 24.9688 25.375" stroke="#85A8BE" stroke-width="1.5" stroke-linecap="round" stroke-linejoin="round"/>
<path d="M12.2812 19.0313H10.4688C10.1113 19.0298 9.75709 19.0991 9.42656 19.2352C9.09603 19.3713 8.79572 19.5715 8.54296 19.8242C8.2902 20.077 8.09 20.3773 7.9539 20.7078C7.8178 21.0384 7.7485 21.3926 7.75 21.75V22.6563C7.7515 23.0137 7.6822 23.3679 7.5461 23.6985C7.41 24.029 7.2098 24.3293 6.95704 24.5821C6.70428 24.8348 6.40397 25.035 6.07344 25.1711C5.74291 25.3072 5.3887 25.3765 5.03125 25.375" stroke="#85A8BE" stroke-width="1.5" stroke-linecap="round" stroke-linejoin="round"/>
<path d="M13.1648 7.25C12.6324 6.41683 11.8989 5.73107 11.0318 5.25594C10.1646 4.78081 9.19188 4.53159 8.20312 4.53125C7.76348 5.29225 7.49969 6.14197 7.43108 7.01816C7.36248 7.89434 7.4908 8.77477 7.80664 9.59492C7.18723 10.508 6.85217 11.5842 6.84375 12.6875V13.5938C6.84375 15.0359 7.41663 16.4189 8.43636 17.4386C9.45609 18.4584 10.8391 19.0312 12.2812 19.0312H17.7188C19.1609 19.0312 20.5439 18.4584 21.5636 17.4386C22.5834 16.4189 23.1562 15.0359 23.1562 13.5938V12.6875C23.1478 11.5842 22.8128 10.508 22.1934 9.59492C22.5092 8.77477 22.6375 7.89434 22.5689 7.01816C22.5003 6.14197 22.2365 5.29225 21.7969 4.53125C20.8081 4.53159 19.8354 4.78081 18.9682 5.25594C18.1011 5.73107 17.3676 6.41683 16.8352 7.25H13.1648Z" stroke="#85A8BE" stroke-width="1.5" stroke-linecap="round" stroke-linejoin="round"/>
</svg>
