<svg width="29" height="29" viewBox="0 0 29 29" fill="none" xmlns="http://www.w3.org/2000/svg">
<path d="M9.51562 27.1875C9.87308 27.189 10.2273 27.1197 10.5578 26.9836C10.8883 26.8475 11.1887 26.6473 11.4414 26.3945C11.6942 26.1418 11.8944 25.8415 12.0305 25.5109C12.1666 25.1804 12.2359 24.8262 12.2344 24.4687V19.0312" stroke="#2B526B" stroke-width="1.5" stroke-linecap="round" stroke-linejoin="round"/>
<path d="M19.4844 27.1875C19.1269 27.189 18.7727 27.1197 18.4422 26.9836C18.1117 26.8475 17.8114 26.6473 17.5586 26.3945C17.3059 26.1418 17.1056 25.8415 16.9695 25.5109C16.8334 25.1804 16.7642 24.8262 16.7656 24.4687V19.0312" stroke="#2B526B" stroke-width="1.5" stroke-linecap="round" stroke-linejoin="round"/>
<path d="M17.2188 19.0313H19.0312C19.3887 19.0298 19.7429 19.0991 20.0734 19.2352C20.404 19.3713 20.7043 19.5715 20.957 19.8242C21.2098 20.077 21.41 20.3773 21.5461 20.7078C21.6822 21.0384 21.7515 21.3926 21.75 21.75V22.6563C21.7485 23.0137 21.8178 23.3679 21.9539 23.6985C22.09 24.029 22.2902 24.3293 22.543 24.5821C22.7957 24.8348 23.096 25.035 23.4266 25.1711C23.7571 25.3072 24.1113 25.3765 24.4688 25.375" stroke="#2B526B" stroke-width="1.5" stroke-linecap="round" stroke-linejoin="round"/>
<path d="M11.7812 19.0313H9.96875C9.6113 19.0298 9.25709 19.0991 8.92656 19.2352C8.59603 19.3713 8.29572 19.5715 8.04296 19.8242C7.7902 20.077 7.59 20.3773 7.4539 20.7078C7.3178 21.0384 7.2485 21.3926 7.25 21.75V22.6563C7.2515 23.0137 7.1822 23.3679 7.0461 23.6985C6.91 24.029 6.7098 24.3293 6.45704 24.5821C6.20428 24.8348 5.90397 25.035 5.57344 25.1711C5.24291 25.3072 4.8887 25.3765 4.53125 25.375" stroke="#2B526B" stroke-width="1.5" stroke-linecap="round" stroke-linejoin="round"/>
<path d="M12.6648 7.25C12.1324 6.41683 11.3989 5.73107 10.5318 5.25594C9.66464 4.78081 8.69188 4.53159 7.70312 4.53125C7.26348 5.29225 6.99969 6.14197 6.93108 7.01816C6.86248 7.89434 6.9908 8.77477 7.30664 9.59492C6.68723 10.508 6.35217 11.5842 6.34375 12.6875V13.5938C6.34375 15.0359 6.91663 16.4189 7.93636 17.4386C8.95609 18.4584 10.3391 19.0312 11.7812 19.0312H17.2188C18.6609 19.0312 20.0439 18.4584 21.0636 17.4386C22.0834 16.4189 22.6562 15.0359 22.6562 13.5938V12.6875C22.6478 11.5842 22.3128 10.508 21.6934 9.59492C22.0092 8.77477 22.1375 7.89434 22.0689 7.01816C22.0003 6.14197 21.7365 5.29225 21.2969 4.53125C20.3081 4.53159 19.3354 4.78081 18.4682 5.25594C17.6011 5.73107 16.8676 6.41683 16.3352 7.25H12.6648Z" stroke="#2B526B" stroke-width="1.5" stroke-linecap="round" stroke-linejoin="round"/>
</svg>
