<svg width="81" height="16" viewBox="0 0 81 16" fill="none" xmlns="http://www.w3.org/2000/svg">
<path d="M3.31776 1.19426H5.24669V9.96366H3.31776V1.19426ZM8.79596 1.19426H10.7403V9.96366H8.79596V1.19426ZM0 8.75461H14.1198V10.5453H0V8.75461ZM0.524669 4.04088H13.6414V5.80087H0.524669V4.04088ZM8.10153 11.9839L9.79896 11.0656C11.1106 12.0298 13.0241 13.4531 14.0118 14.3866L12.1754 15.458C11.3113 14.5397 9.47495 13.0399 8.10153 11.9839ZM3.99675 11.1268L5.95656 11.8767C4.79915 13.2082 3.10172 14.6009 1.60487 15.458C1.21908 15.0754 0.524669 14.4938 0.0925877 14.1724C1.54314 13.4225 3.19431 12.1522 3.99675 11.1268Z" fill="#0E1620"/>
<path d="M24.446 4.66327H31.9878V6.20322H24.446V4.66327ZM25.1549 7.36192H26.8142V13.5064H25.1549V7.36192ZM26.06 7.36192H31.3242V12.5001H26.06V10.9754H29.6498V8.85617H26.06V7.36192ZM21.8215 1.84261H33.8883V3.58075H23.5711V15.458H21.8215V1.84261ZM32.8778 1.84261H34.6576V13.3539C34.6576 14.2992 34.4766 14.8176 33.8883 15.1073C33.3152 15.4122 32.4856 15.458 31.2035 15.458C31.1431 14.9549 30.8716 14.1163 30.6001 13.6589C31.3996 13.6894 32.2744 13.6894 32.5309 13.6894C32.7873 13.6741 32.8778 13.5826 32.8778 13.3234V1.84261Z" fill="#0E1620"/>
<path d="M56.2577 0.700218C56.6909 1.33042 57.3147 2.39825 57.6613 3.09847L56.7255 3.5186C56.379 2.81838 55.7898 1.76805 55.3219 1.10284L56.2577 0.700218ZM58.1465 0C58.6144 0.647702 59.2729 1.73304 59.6021 2.38074L58.6664 2.80087C58.2851 2.04814 57.7306 1.05033 57.2454 0.402626L58.1465 0ZM49.6381 7.21225C51.8562 8.50766 54.7154 10.5208 56.4136 11.9387L55.4086 13.1466C53.797 11.6761 50.8511 9.52297 48.7023 8.17505L49.6381 7.21225ZM57.5573 4.00875C57.4187 4.25383 57.2627 4.67396 57.1588 4.95405C56.6389 6.73961 55.5472 9.05033 54.0223 10.9584C52.4627 12.9015 50.1926 14.7746 46.9001 16L45.6698 14.9147C48.8929 13.9168 51.2496 12.0613 52.8092 10.1882C54.1609 8.57768 55.2526 6.35449 55.6512 4.72648H49.2222L49.7767 3.48359H55.2873C55.7551 3.48359 56.1364 3.41357 56.4136 3.30853L57.5573 4.00875ZM51.7175 1.48796C51.4229 1.94311 51.1283 2.53829 50.9551 2.85339C49.9153 4.77899 47.9572 7.43982 45.2019 9.36543L44.0409 8.45514C47.0041 6.58206 48.789 3.95624 49.5861 2.36324C49.7594 2.04814 50.054 1.41794 50.1579 0.980306L51.7175 1.48796Z" fill="#0E1620"/>
<path d="M76.4611 0.692439C76.3739 1.15536 76.3738 1.68441 76.3738 2.19142C76.4175 4.13129 76.5266 10.8326 76.5702 14.029C76.5702 14.9769 75.872 15.528 74.9118 15.528C74.0608 15.528 72.6206 15.4619 71.7695 15.4178L71.6604 13.7865C72.5551 13.9188 73.6898 14.007 74.3226 14.007C74.7372 14.007 74.9336 13.7645 74.9336 13.3457C74.9336 10.7445 74.8245 4.13129 74.7372 2.19142C74.7372 1.75055 74.6936 1.1774 74.6063 0.692439H76.4611ZM66.6197 3.86676C67.1434 3.95494 67.7326 3.97698 68.2563 3.97698C69.1728 3.97698 78.6433 3.97698 79.538 3.97698C79.9962 3.97698 80.6945 3.9329 81 3.86676V5.60823C80.629 5.58619 80.018 5.56415 79.6034 5.56415C78.8179 5.56415 69.0637 5.56415 68.2781 5.56415C67.7107 5.56415 67.1434 5.58619 66.6197 5.63028V3.86676ZM66.0523 12.3096C69.5656 10.6122 73.1443 7.37175 74.4099 5.05714L75.3046 5.07918L75.3264 6.40181C74.1699 8.56212 70.5912 11.8908 67.2525 13.6543L66.0523 12.3096Z" fill="#0E1620"/>
</svg>
