<svg width="460" height="460" viewBox="0 0 460 460" fill="none" xmlns="http://www.w3.org/2000/svg">
<path d="M161.384 166.365C137.827 152.753 109.824 149.064 83.5345 156.109C57.2452 163.155 34.8233 180.357 21.2012 203.932C7.57922 227.507 3.87296 255.523 10.8978 281.818C17.9226 308.113 35.1031 330.532 58.6598 344.143L161.384 166.365Z" fill="#F69783"/>
<g opacity="0.55" filter="url(#filter0_biiii_287_653)">
<path d="M229.29 48L19 412H439.58L229.29 48Z" fill="url(#paint0_linear_287_653)"/>
</g>
<path opacity="0.75" d="M139.088 201.362C125.41 193.459 109.15 191.317 93.8856 195.408C78.6208 199.499 65.6017 209.487 57.6921 223.176C49.7826 236.864 47.6306 253.132 51.7096 268.4C55.7885 283.668 65.7643 296.685 79.4424 304.589L139.088 201.362Z" fill="url(#paint1_linear_287_653)"/>
<path d="M344.439 255.51C350.062 254.912 356.567 254.204 362.813 254.346" stroke="#0E1620" stroke-width="2" stroke-miterlimit="10"/>
<path d="M313.808 261.18C303.849 263.692 294.16 267.32 285.893 273.35C272.02 283.457 265.679 302.312 271.348 318.648C271.348 318.669 293.643 382.981 293.643 382.981H287.776C286.511 382.98 285.259 383.23 284.092 383.716C282.924 384.202 281.865 384.914 280.974 385.812C279.229 387.546 278.369 390.437 278.369 393.091H331.18L311.111 327.445C310.61 325.827 310.498 324.114 310.782 322.444C311.067 320.774 311.741 319.195 312.749 317.834C313.757 316.473 315.071 315.368 316.586 314.61C318.1 313.851 319.772 313.459 321.466 313.467C332.9 313.789 343.52 314.227 355.085 313.725" stroke="#0E1620" stroke-width="2" stroke-miterlimit="10"/>
<path d="M433.046 246.624V246.553C432.533 232.752 431.84 219.134 428.064 207.06C420.95 184.34 404.686 156.117 376.973 156.266C374.311 156.276 371.66 156.592 369.07 157.207C350.803 161.55 338.116 180.267 330.851 199.571L330.787 199.72C330.093 201.572 329.452 203.419 328.862 205.262C328.462 206.502 327.969 207.71 327.386 208.875C325.16 213.36 321.633 217.069 317.264 219.515C312.896 221.962 307.891 223.033 302.904 222.588C269.355 219.538 225.141 217.797 211.215 241.369" stroke="#0E1620" stroke-width="2" stroke-miterlimit="10"/>
<path d="M378.149 220.953C373.265 226.849 368.123 232.543 362.808 238.049C351.925 249.331 342.537 261.314 325.649 262.114C312.177 262.761 299.352 257.591 286.612 254.006C272.984 250.174 266.086 247.109 253.385 243.237C249.728 242.127 245.933 241.531 242.111 241.468L229.325 241.567" stroke="#0E1620" stroke-width="2" stroke-miterlimit="10"/>
<path d="M328.277 383.809C329.494 383.263 330.814 382.983 332.148 382.988H338.03C338.03 382.988 325.736 359.09 315.905 343.182" stroke="#0E1620" stroke-width="2" stroke-miterlimit="10"/>
<path d="M336.354 313.778L377.476 393.519H330.961H322.524" stroke="#0E1620" stroke-width="2" stroke-miterlimit="10"/>
<path d="M448.536 388.944C446.384 391.906 442.835 393.519 439.176 393.519H397.134C393.648 393.519 390.247 392.076 388.074 389.351C386.757 387.719 385.933 385.744 385.7 383.66C385.487 381.746 386.91 380.043 388.835 380.121C389.565 380.15 390.259 380.441 390.79 380.942C391.321 381.443 391.653 382.12 391.723 382.846C391.809 383.874 392.212 384.85 392.877 385.638C393.384 386.22 394.013 386.684 394.72 386.996C395.426 387.309 396.192 387.463 396.964 387.447H439.356C440.115 387.46 440.867 387.308 441.562 387.003C442.257 386.697 442.877 386.245 443.38 385.677C443.947 385.021 444.334 384.228 444.503 383.377C444.672 382.526 444.617 381.645 444.343 380.822L425.413 324.547C424.455 321.882 422.691 319.582 420.366 317.965C418.041 316.348 415.271 315.494 412.44 315.523C404.47 315.618 394.352 315.639 393.4 315.639C369.785 315.565 360.489 315.565 355.563 315.746C355.486 315.745 355.41 315.73 355.34 315.7C355.269 315.67 355.205 315.627 355.151 315.572C355.097 315.517 355.054 315.453 355.025 315.382C354.997 315.311 354.982 315.235 354.982 315.158C354.975 312.973 355.777 310.863 357.233 309.234C357.239 309.23 357.244 309.225 357.247 309.218C357.251 309.212 357.253 309.206 357.254 309.199C358.551 307.822 360.322 306.99 362.209 306.87C370.072 306.226 377.858 305.051 385.42 302.998C398.765 299.382 411.495 293.178 420.338 283.202C424.643 278.373 427.897 272.702 429.893 266.548C431.439 261.664 432.411 256.617 432.792 251.508C432.931 249.889 433.016 248.264 433.046 246.631V246.553C433.046 246.182 433.068 245.796 433.068 245.421C433.116 243.089 433.009 240.757 432.749 238.439C436.599 238.418 440.482 241.217 441.154 245.124C441.218 245.505 441.25 245.891 441.25 246.277V292.046C441.253 295.172 440.636 298.268 439.434 301.155C438.232 304.041 436.468 306.66 434.246 308.859C430.566 312.504 429.518 318.035 431.263 322.901L450.076 378.879C450.647 380.557 450.805 382.348 450.537 384.1C450.269 385.852 449.583 387.513 448.536 388.944Z" stroke="#0E1620" stroke-width="2" stroke-miterlimit="10"/>
<path d="M246.551 249.477H137.019C134.336 249.477 132.16 251.652 132.16 254.336V254.339C132.16 257.023 134.336 259.198 137.019 259.198H246.551C249.235 259.198 251.41 257.023 251.41 254.339V254.336C251.41 251.652 249.235 249.477 246.551 249.477Z" stroke="#0E1620" stroke-width="2" stroke-miterlimit="10"/>
<path d="M215.533 388.14H171.244C169.741 388.14 168.523 389.359 168.523 390.862C168.523 392.365 169.741 393.583 171.244 393.583H215.533C217.036 393.583 218.255 392.365 218.255 390.862C218.255 389.359 217.036 388.14 215.533 388.14Z" stroke="#0E1620" stroke-width="2" stroke-miterlimit="10"/>
<path d="M183.071 245.113V245.601C183.141 248.96 186.302 249.473 189.027 249.494L241.706 249.459C244.014 249.459 245.918 247.689 245.921 245.516V245.424C245.879 243.301 244.024 241.57 241.745 241.567C241.745 241.567 212.273 241.461 189.448 241.393C189.037 242.59 187.997 243.517 186.698 244.274C185.581 244.86 184.332 245.149 183.071 245.113Z" stroke="#0E1620" stroke-width="2" stroke-miterlimit="10"/>
<path d="M154.101 197.798C154.112 198.358 154.272 198.904 154.564 199.38L178.983 240.392C179.299 240.886 179.713 241.308 180.201 241.633C180.688 241.959 181.237 242.179 181.814 242.282C182.789 242.474 183.801 242.365 184.712 241.967C186.209 241.302 187.073 239.961 187.044 238.602C187.039 238.431 187.021 238.26 186.991 238.092C186.916 237.717 186.777 237.358 186.581 237.03L162.162 196.018C161.101 194.224 158.503 193.52 156.415 194.444C154.925 195.095 154.062 196.436 154.101 197.798Z" stroke="#0E1620" stroke-width="2" stroke-miterlimit="10"/>
<path d="M220.13 241.567C220.13 241.567 223.071 238.768 229.834 234.323" stroke="#0E1620" stroke-width="2" stroke-miterlimit="10"/>
<path d="M244.109 195.562L233.39 207.449C232.643 208.277 231.607 208.787 230.496 208.873C229.384 208.959 228.281 208.615 227.416 207.912C226.938 207.524 226.548 207.039 226.271 206.489C225.994 205.939 225.838 205.337 225.811 204.722C225.784 204.107 225.888 203.493 226.116 202.921C226.344 202.349 226.691 201.832 227.133 201.404L229.094 199.507C229.168 199.401 229.253 199.306 229.338 199.207L230.753 197.646L242.927 184.418C244.404 182.794 246.265 181.566 248.339 180.847C250.413 180.127 252.634 179.939 254.8 180.298L254.98 180.33" stroke="#0E1620" stroke-width="2" stroke-miterlimit="10"/>
<path d="M259.206 198.779H248.483C247.263 198.779 246.093 198.294 245.23 197.431C244.368 196.568 243.883 195.398 243.883 194.178C243.883 192.958 244.368 191.788 245.23 190.925C246.093 190.062 247.263 189.577 248.483 189.577H263.701" stroke="#0E1620" stroke-width="2" stroke-miterlimit="10"/>
<path d="M250.986 198.779C250.837 200.658 250.119 202.049 249.061 203.025C246.336 205.503 241.339 205.23 237.864 203.528" stroke="#0E1620" stroke-width="2" stroke-miterlimit="10"/>
<path d="M230.772 197.639C227.69 193.927 228.323 188.88 230.719 184.977C240.61 168.826 259.465 178.773 271.862 185.734C279.241 189.898 286.296 194.613 292.964 199.84C298.867 204.441 304.331 209.947 311.423 212.715C315.67 214.375 320.684 214.771 324.91 212.856" stroke="#0E1620" stroke-width="2" stroke-miterlimit="10"/>
<path d="M249.06 202.997C256.54 208.518 263.683 214.482 270.449 220.858" stroke="#0E1620" stroke-width="2" stroke-miterlimit="10"/>
<path d="M362.004 131.098C362.22 130.176 362.538 129.281 362.952 128.429C363.603 127.215 364.576 126.426 366.095 127.329C369.074 129.098 370.249 134.297 367.379 136.678L369.219 140.118C369.861 141.324 370.901 142.27 372.162 142.794C373.423 143.318 374.827 143.388 376.134 142.992" stroke="#0E1620" stroke-width="2" stroke-linecap="round" stroke-linejoin="round"/>
<path d="M374.255 138.837L376.127 142.999C376.598 143.993 377.946 147.051 379.358 150.228C380.363 152.504 381.41 154.847 382.189 156.57" stroke="#0E1620" stroke-width="2" stroke-linecap="round" stroke-linejoin="round"/>
<path d="M343.93 123.892C343.93 123.892 349.448 122.519 351.858 126.702" stroke="#0E1620" stroke-width="2" stroke-miterlimit="10"/>
<path d="M345.556 136.381C344.069 136.788 342.07 137.153 340.923 135.857L343.422 130.599C344.028 129.309 344.178 127.851 343.846 126.465C343.301 124.133 341.939 120.591 343.4 117.515" stroke="#0E1620" stroke-width="2" stroke-miterlimit="10"/>
<path d="M349.267 129.333C349.686 128.639 349.363 127.676 348.546 127.184C347.729 126.692 346.728 126.856 346.309 127.55C345.89 128.245 346.213 129.207 347.03 129.7C347.847 130.192 348.849 130.028 349.267 129.333Z" fill="#0E1620"/>
<path d="M357.318 162.441L356.008 147.911" stroke="#0E1620" stroke-width="2" stroke-miterlimit="10"/>
<path d="M361.989 131.48C361.989 131.352 361.989 131.221 361.989 131.094C361.996 130.957 361.996 130.82 361.989 130.683" stroke="#0E1620" stroke-width="2" stroke-linecap="round" stroke-linejoin="round"/>
<path d="M361.993 131.483L360.853 130.871L358.673 129.685" stroke="#0E1620" stroke-width="2" stroke-linecap="round" stroke-linejoin="round"/>
<path d="M352.87 136.756C352.87 136.756 352.76 140.437 348.552 141.951" stroke="#0E1620" stroke-width="2" stroke-miterlimit="10"/>
<path d="M374.254 138.837C378.664 139.619 381.75 134.116 380.405 130.758C379.488 128.45 379.534 126.656 380.759 124.413C380.84 124.26 380.907 124.112 380.978 123.963C381.888 121.957 381.566 119.968 380.136 118.262C378.781 116.648 376.739 116.082 377.326 113.729C377.59 112.707 377.688 111.65 377.616 110.597C377.464 109.223 377.018 107.897 376.31 106.71C375.602 105.523 374.648 104.501 373.511 103.714C371.126 102.132 368.44 103.565 365.871 103.526C362.778 103.48 360.545 100.847 357.3 100.808C355.675 100.808 354.366 101.413 352.986 102.199C351.825 102.868 350.675 103.572 349.578 104.322C348.481 105.073 347.454 105.738 346.152 105.738C344.425 105.738 342.758 104.676 341.031 105.172C339.304 105.667 338.278 107.097 337.938 108.753C337.386 111.351 338.352 114.596 340.09 116.185C341.881 117.82 344.63 117.908 346.906 117.689C349.815 117.423 352.696 116.719 355.544 116.124L357.275 116.036H357.3C357.631 116.039 357.959 116.108 358.265 116.238C358.57 116.368 358.847 116.557 359.079 116.794C359.311 117.031 359.495 117.311 359.619 117.619C359.743 117.927 359.805 118.256 359.802 118.588C359.841 122.322 359.468 126.05 358.69 129.703" stroke="#0E1620" stroke-width="2" stroke-miterlimit="10"/>
<path d="M362.659 142.864C362.659 142.864 356.083 151.598 350.241 149.641C344.398 147.684 344.101 136.873 344.101 136.873" stroke="#0E1620" stroke-width="2" stroke-linecap="round" stroke-linejoin="round"/>
<path d="M189.196 387.532V323.367V259.201H197.049V387.585" stroke="#0E1620" stroke-width="2" stroke-miterlimit="10"/>
<path d="M233.355 393.519H380.668" stroke="#0E1620" stroke-width="2" stroke-miterlimit="10"/>
<defs>
<filter id="filter0_biiii_287_653" x="-2" y="27" width="462.58" height="406" filterUnits="userSpaceOnUse" color-interpolation-filters="sRGB">
<feFlood flood-opacity="0" result="BackgroundImageFix"/>
<feGaussianBlur in="BackgroundImageFix" stdDeviation="10.5"/>
<feComposite in2="SourceAlpha" operator="in" result="effect1_backgroundBlur_287_653"/>
<feBlend mode="normal" in="SourceGraphic" in2="effect1_backgroundBlur_287_653" result="shape"/>
<feColorMatrix in="SourceAlpha" type="matrix" values="0 0 0 0 0 0 0 0 0 0 0 0 0 0 0 0 0 0 127 0" result="hardAlpha"/>
<feOffset dx="10" dy="10"/>
<feGaussianBlur stdDeviation="11.5"/>
<feComposite in2="hardAlpha" operator="arithmetic" k2="-1" k3="1"/>
<feColorMatrix type="matrix" values="0 0 0 0 0.988235 0 0 0 0 0.384314 0 0 0 0 0.254902 0 0 0 0.18 0"/>
<feBlend mode="normal" in2="shape" result="effect2_innerShadow_287_653"/>
<feColorMatrix in="SourceAlpha" type="matrix" values="0 0 0 0 0 0 0 0 0 0 0 0 0 0 0 0 0 0 127 0" result="hardAlpha"/>
<feOffset dy="2"/>
<feGaussianBlur stdDeviation="3"/>
<feComposite in2="hardAlpha" operator="arithmetic" k2="-1" k3="1"/>
<feColorMatrix type="matrix" values="0 0 0 0 1 0 0 0 0 1 0 0 0 0 1 0 0 0 0.05 0"/>
<feBlend mode="normal" in2="effect2_innerShadow_287_653" result="effect3_innerShadow_287_653"/>
<feColorMatrix in="SourceAlpha" type="matrix" values="0 0 0 0 0 0 0 0 0 0 0 0 0 0 0 0 0 0 127 0" result="hardAlpha"/>
<feOffset dy="1"/>
<feComposite in2="hardAlpha" operator="arithmetic" k2="-1" k3="1"/>
<feColorMatrix type="matrix" values="0 0 0 0 1 0 0 0 0 1 0 0 0 0 1 0 0 0 0.05 0"/>
<feBlend mode="normal" in2="effect3_innerShadow_287_653" result="effect4_innerShadow_287_653"/>
<feColorMatrix in="SourceAlpha" type="matrix" values="0 0 0 0 0 0 0 0 0 0 0 0 0 0 0 0 0 0 127 0" result="hardAlpha"/>
<feOffset dy="-10"/>
<feGaussianBlur stdDeviation="5"/>
<feComposite in2="hardAlpha" operator="arithmetic" k2="-1" k3="1"/>
<feColorMatrix type="matrix" values="0 0 0 0 0.988235 0 0 0 0 0.384314 0 0 0 0 0.254902 0 0 0 0.4 0"/>
<feBlend mode="overlay" in2="effect4_innerShadow_287_653" result="effect5_innerShadow_287_653"/>
</filter>
<linearGradient id="paint0_linear_287_653" x1="229.29" y1="768.521" x2="443.543" y2="112.339" gradientUnits="userSpaceOnUse">
<stop stop-color="#F69783" stop-opacity="0.141176"/>
<stop offset="1" stop-color="white" stop-opacity="0.12"/>
</linearGradient>
<linearGradient id="paint1_linear_287_653" x1="36.5103" y1="210.936" x2="109.265" y2="252.975" gradientUnits="userSpaceOnUse">
<stop stop-color="white"/>
<stop offset="1" stop-color="white" stop-opacity="0"/>
</linearGradient>
</defs>
</svg>
