<svg width="32" height="32" viewBox="0 0 32 32" fill="none" xmlns="http://www.w3.org/2000/svg">
<path d="M15.9997 11C15.9997 8.24997 18.3122 5.96247 21.0622 5.99997C22.0253 6.01108 22.9646 6.30011 23.7673 6.83231C24.5701 7.36451 25.202 8.11722 25.5872 8.99997H29.9997L25.9622 13.0375C25.7016 17.0932 23.9063 20.8974 20.9412 23.6768C17.9761 26.4562 14.0638 28.002 9.9997 28C5.9997 28 4.9997 26.5 4.9997 26.5C4.9997 26.5 8.9997 25 10.9997 22C10.9997 22 2.9997 18 4.9997 6.99997C4.9997 6.99997 9.9997 12 15.9997 13V11Z" stroke="#2B526B" stroke-width="1.5" stroke-linecap="round" stroke-linejoin="round"/>
</svg>
