<svg width="33" height="32" viewBox="0 0 33 32" fill="none" xmlns="http://www.w3.org/2000/svg">
<path d="M16.4997 11C16.4997 8.24997 18.8122 5.96247 21.5622 5.99997C22.5253 6.01108 23.4646 6.30011 24.2673 6.83231C25.0701 7.36451 25.702 8.11722 26.0872 8.99997H30.4997L26.4622 13.0375C26.2016 17.0932 24.4063 20.8974 21.4412 23.6768C18.4761 26.4562 14.5638 28.002 10.4997 28C6.4997 28 5.4997 26.5 5.4997 26.5C5.4997 26.5 9.4997 25 11.4997 22C11.4997 22 3.4997 18 5.4997 6.99997C5.4997 6.99997 10.4997 12 16.4997 13V11Z" stroke="#85A8BE" stroke-width="1.5" stroke-linecap="round" stroke-linejoin="round"/>
</svg>
